<svg width="653" height="653" viewBox="0 0 653 653" fill="none" xmlns="http://www.w3.org/2000/svg">
<g clip-path="url(#clip0_68_1054)">
<rect width="653" height="653" rx="184" fill="white"/>
<path d="M368.649 538.998V452.781C368.649 441.347 364.107 430.383 356.023 422.298C347.938 414.214 336.973 409.672 325.54 409.672C314.107 409.672 303.142 414.214 295.058 422.298C286.973 430.383 282.432 441.347 282.432 452.781V538.998" stroke="black" stroke-width="30" stroke-linecap="round" stroke-linejoin="round"/>
<path d="M454.869 280.346L529.167 317.505C532.747 319.294 535.758 322.044 537.863 325.448C539.968 328.851 541.084 332.773 541.086 336.775V495.889C541.086 507.322 536.545 518.287 528.46 526.371C520.376 534.456 509.411 538.997 497.978 538.997H153.109C141.676 538.997 130.711 534.456 122.626 526.371C114.542 518.287 110 507.322 110 495.889V336.775C110.002 332.773 111.118 328.851 113.223 325.448C115.329 322.044 118.34 319.294 121.92 317.505L196.217 280.346" stroke="black" stroke-width="30" stroke-linecap="round" stroke-linejoin="round"/>
<path d="M454.867 172.576V539" stroke="black" stroke-width="30" stroke-linecap="round" stroke-linejoin="round"/>
<path d="M153.107 194.129L306.272 117.546C312.256 114.557 318.853 113 325.542 113C332.231 113 338.828 114.557 344.811 117.546L497.976 194.129" stroke="black" stroke-width="30" stroke-linecap="round" stroke-linejoin="round"/>
<path d="M196.217 172.576V539" stroke="black" stroke-width="30" stroke-linecap="round" stroke-linejoin="round"/>
<path d="M325.54 301.901C349.349 301.901 368.649 282.6 368.649 258.792C368.649 234.984 349.349 215.684 325.54 215.684C301.732 215.684 282.432 234.984 282.432 258.792C282.432 282.6 301.732 301.901 325.54 301.901Z" stroke="black" stroke-width="30" stroke-linecap="round" stroke-linejoin="round"/>
</g>
<defs>
<clipPath id="clip0_68_1054">
<rect width="653" height="653" fill="white"/>
</clipPath>
</defs>
</svg>
