<svg width="580" height="500" viewBox="0 0 580 500" fill="none" xmlns="http://www.w3.org/2000/svg">
<g clip-path="url(#clip0_66_2)">
<g clip-path="url(#clip1_66_2)">
<path d="M579.986 0H0V415.556H579.986V0Z" fill="#C5EDEC"/>
<path d="M348.456 335.016V320.336H348.907V316.619V312.902H353.432L353.251 312.771H362.142L338.658 294.72V264.172H344.588V257.787H294.674V230.585V227.375V224.165H304.335L243.9 184.175L183.529 224.164H192.846V227.374V230.584V257.786H159.579V219.344H159.741V215.626H159.78V211.909H170.775L100.735 165.564L30.7676 211.909H41.5666V215.626V219.344V286.718V346.054H38.9836V426.562H41.5666V429.011H64.9146H136.868H159.504H159.579H255.304H255.32L348.815 429.994L348.994 406.698L348.455 406.692V384.961V335.016H348.456ZM159.78 264.17V293.652L159.579 293.785V286.717V264.17H159.78Z" fill="#B2D8D6"/>
<path d="M566.951 321.266V309.786H567.304V306.879V303.972H570.843L570.702 303.869H577.655L559.29 289.753V265.864H563.927V260.871H524.894V239.599V237.089V234.579H532.449L485.189 203.308L437.979 234.579H445.265V237.089V239.599V260.872H419.25V230.81H419.377V227.903H419.407V224.996H428.005L373.234 188.754L318.52 224.996H326.964V227.903V230.81V283.497V329.898H324.944V392.856H326.964V394.771H345.222H401.49H419.191H419.25H494.107H494.12L567.233 395.539L567.374 377.322L566.953 377.318V360.324V321.266H566.951ZM419.406 265.865V288.92L419.249 289.024V283.497V265.865H419.406Z" fill="#B2D8D6"/>
<path d="M580 395H0V445H580V395Z" fill="#B6A0A1"/>
<path d="M245.114 368.244V387.99L244.624 387.995L244.787 409.162L329.74 408.269H329.755H416.734H416.802H437.37H502.749H523.963V406.044H526.31V332.892H523.963V278.977V217.759V214.381V211.003H533.775L470.201 168.893L406.561 211.003H416.552V214.381H416.587V217.759H416.734V252.688H386.506V227.971V225.055V222.139H394.972L340.117 185.804L285.205 222.139H293.983V225.055V227.971V252.688H248.629V258.489H254.017V286.246L232.678 302.648H240.756L240.591 302.767H244.703V306.145V309.523H245.113V322.862V368.244H245.114ZM416.734 258.49V278.977V285.399L416.552 285.278V258.49H416.734Z" fill="#B2D8D6"/>
<path d="M46.5824 345.858V361.299L46.1994 361.303L46.3274 377.856L112.76 377.158H112.772H180.79H180.843H196.927H248.053H264.643V375.418H266.479V318.213H264.643V276.051V228.178V225.536V222.895H272.316L222.601 189.965L172.834 222.895H180.647V225.536H180.674V228.178H180.789V255.493H157.151V236.164V233.884V231.603H163.771L120.874 203.189L77.9334 231.603H84.7974V233.884V236.164V255.493H49.3314V260.03H53.5444V281.736L36.8574 294.562H43.1744L43.0454 294.655H46.2604V297.296V299.937H46.5804V310.368V345.858H46.5824ZM180.789 260.03V276.051V281.073L180.646 280.978V260.03H180.789Z" fill="#B2D8D6"/>
<path d="M537.293 84.4081C537.265 84.4081 537.238 84.4111 537.21 84.4111C536.587 80.3281 532.205 77.1631 526.882 77.1631C525.187 77.1631 523.592 77.4901 522.178 78.0591C520.387 74.2291 515.747 71.4941 510.289 71.4941C504.939 71.4941 500.372 74.1201 498.506 77.8301C496.838 77.3991 495.058 77.1631 493.208 77.1631C483.774 77.1631 476.127 83.2201 476.127 90.6911C476.127 98.1621 483.774 104.219 493.208 104.219C498.154 104.219 502.606 102.552 505.725 99.8921C508.271 102.494 512.714 104.219 517.772 104.219C522.504 104.219 526.698 102.71 529.305 100.384C531.394 101.94 534.199 102.9 537.294 102.9C543.742 102.9 548.969 98.7601 548.969 93.6531C548.968 88.5481 543.741 84.4081 537.293 84.4081Z" fill="white"/>
<path d="M580 452H0V500H580V452Z" fill="#775F5B"/>
<path d="M580 449.219H0V452.282H580V449.219Z" fill="white"/>
<path d="M503.401 338.17H487.393V403.537H503.401V338.17Z" fill="#B6712C"/>
<path d="M503.4 338.17H497.504V400.71H503.4V338.17Z" fill="#A36028"/>
<path d="M531.517 283.067C531.387 282.585 531.275 282.097 531.124 281.624C538.404 278.711 543.554 271.605 543.554 263.284C543.554 252.371 534.707 243.524 523.794 243.524C522.185 243.524 520.63 243.737 519.133 244.1C520.136 240.894 520.678 237.485 520.678 233.95C520.678 215.186 505.467 199.975 486.703 199.975C467.939 199.975 452.728 215.186 452.728 233.95C452.728 235.286 452.825 236.597 452.975 237.893C446.222 242.267 441.742 249.852 441.742 258.497C441.742 264.562 443.952 270.103 447.597 274.386C443.978 278.155 441.742 283.263 441.742 288.9C441.742 289.269 441.778 289.629 441.797 289.992C434.878 292.501 429.924 299.112 429.924 306.898C429.924 316.838 437.983 324.896 447.923 324.896C449.742 324.896 451.496 324.621 453.152 324.118C452.895 325.683 452.728 327.278 452.728 328.915C452.728 345.196 465.927 358.395 482.208 358.395C496.445 358.395 508.324 348.302 511.082 334.882C516.371 339.682 523.37 342.632 531.075 342.632C547.53 342.632 560.869 329.292 560.869 312.837C560.869 296.533 547.766 283.306 531.517 283.067Z" fill="#8DAF38"/>
<path d="M447.726 310.661C447.707 310.297 447.671 309.937 447.671 309.568C447.671 303.93 449.907 298.823 453.526 295.054C449.881 290.771 447.671 285.23 447.671 279.165C447.671 270.52 452.15 262.934 458.904 258.561C458.754 257.265 458.657 255.954 458.657 254.618C458.657 235.854 473.868 220.643 492.632 220.643C504.236 220.643 514.47 226.469 520.598 235.347C520.64 234.66 520.678 233.971 520.678 233.274C520.678 214.51 505.467 199.299 486.703 199.299C467.939 199.299 452.728 214.51 452.728 233.274C452.728 234.61 452.825 235.921 452.975 237.217C446.221 241.59 441.742 249.176 441.742 257.821C441.742 263.886 443.953 269.427 447.597 273.71C443.978 277.479 441.742 282.586 441.742 288.224C441.742 288.593 441.778 288.953 441.797 289.317C434.878 291.826 429.924 298.437 429.924 306.223C429.924 312.167 432.841 317.394 437.283 320.671C439.218 316.046 442.987 312.38 447.726 310.661Z" fill="#7DA032"/>
<path d="M96.133 334.561H80.125V399.928H96.133V334.561Z" fill="#B6712C"/>
<path d="M96.1323 334.561H90.2363V397.101H96.1323V334.561Z" fill="#A36028"/>
<path d="M124.249 279.458C124.119 278.976 124.007 278.488 123.856 278.015C131.136 275.102 136.286 267.996 136.286 259.676C136.286 248.763 127.439 239.916 116.526 239.916C114.917 239.916 113.362 240.129 111.865 240.492C112.868 237.287 113.41 233.878 113.41 230.342C113.41 211.578 98.1992 196.367 79.4352 196.367C60.6712 196.367 45.4602 211.578 45.4602 230.342C45.4602 231.678 45.5573 232.989 45.7073 234.285C38.9543 238.658 34.4742 246.244 34.4742 254.889C34.4742 260.954 36.6843 266.495 40.3293 270.778C36.7103 274.547 34.4742 279.655 34.4742 285.292C34.4742 285.661 34.5102 286.021 34.5292 286.384C27.6102 288.893 22.6562 295.504 22.6562 303.29C22.6562 313.23 30.7152 321.288 40.6552 321.288C42.4742 321.288 44.2282 321.013 45.8832 320.511C45.6262 322.076 45.4592 323.671 45.4592 325.308C45.4592 341.589 58.6583 354.788 74.9393 354.788C89.1763 354.788 101.055 344.695 103.813 331.275C109.102 336.075 116.101 339.025 123.806 339.025C140.261 339.025 153.6 325.685 153.6 309.23C153.601 292.925 140.498 279.697 124.249 279.458Z" fill="#8DAF38"/>
<path d="M40.4583 307.053C40.4393 306.689 40.4032 306.329 40.4032 305.96C40.4032 300.322 42.6392 295.215 46.2582 291.446C42.6132 287.163 40.4032 281.622 40.4032 275.557C40.4032 266.912 44.8823 259.326 51.6363 254.953C51.4863 253.657 51.3892 252.346 51.3892 251.01C51.3892 232.246 66.6003 217.035 85.3643 217.035C96.9683 217.035 107.202 222.861 113.33 231.739C113.372 231.052 113.41 230.363 113.41 229.666C113.41 210.902 98.1992 195.691 79.4352 195.691C60.6712 195.691 45.4602 210.902 45.4602 229.666C45.4602 231.002 45.5573 232.314 45.7073 233.609C38.9533 237.983 34.4742 245.568 34.4742 254.213C34.4742 260.278 36.6853 265.819 40.3293 270.102C36.7103 273.871 34.4742 278.978 34.4742 284.616C34.4742 284.985 34.5102 285.345 34.5292 285.709C27.6102 288.218 22.6562 294.829 22.6562 302.615C22.6562 308.559 25.5733 313.786 30.0153 317.064C31.9503 312.438 35.7203 308.771 40.4583 307.053Z" fill="#7DA032"/>
<path d="M409.213 258.912H169.037V401.968H409.213V258.912Z" fill="#C4D4B5"/>
<path d="M490.147 258.912H409.213V401.968H490.147V258.912Z" fill="#A3C6B4"/>
<path d="M216.284 328.473H205.785V401.97H216.284V328.473Z" fill="#84AAA0"/>
<path d="M202.221 275.023H178.25V297.808H202.221V275.023Z" fill="#39828F"/>
<path d="M197.18 275.023L178.25 284.739V294.801L202.221 283.524V275.023H197.18Z" fill="#619BA5"/>
<path d="M178.25 296.073L202.221 284.912V286.936L178.25 297.808V296.073Z" fill="#619BA5"/>
<path d="M191.066 275.023H189.109V297.808H191.066V275.023Z" fill="#DFC2C2"/>
<path d="M202.221 285.549H178.25V287.399H202.221V285.549Z" fill="#DFC2C2"/>
<path d="M202.221 272.971H178.25V275.023H202.221V272.971Z" fill="white"/>
<path d="M178.249 272.971H176.076V297.808H178.249V272.971Z" fill="white"/>
<path d="M204.537 272.971H202.221V297.808H204.537V272.971Z" fill="white"/>
<path d="M204.536 297.809H176.076V300.231H204.536V297.809Z" fill="white"/>
<path d="M242.907 275.023H218.936V297.808H242.907V275.023Z" fill="#39828F"/>
<path d="M237.867 275.023L218.936 284.739V294.801L242.907 283.524V275.023H237.867Z" fill="#619BA5"/>
<path d="M218.936 296.073L242.907 284.912V286.936L218.936 297.808V296.073Z" fill="#619BA5"/>
<path d="M231.752 275.023H229.795V297.808H231.752V275.023Z" fill="#DFC2C2"/>
<path d="M242.907 285.549H218.936V287.399H242.907V285.549Z" fill="#DFC2C2"/>
<path d="M242.907 272.971H218.936V275.023H242.907V272.971Z" fill="white"/>
<path d="M218.936 272.971H216.762V297.808H218.936V272.971Z" fill="white"/>
<path d="M245.221 272.971H242.906V297.808H245.221V272.971Z" fill="white"/>
<path d="M245.222 297.809H216.762V300.231H245.222V297.809Z" fill="white"/>
<path d="M358.401 276.336H334.43V299.121H358.401V276.336Z" fill="#39828F"/>
<path d="M353.36 276.336L334.43 286.051V296.113L358.401 284.837V276.336H353.36Z" fill="#619BA5"/>
<path d="M334.43 297.386L358.401 286.225V288.249L334.43 299.12V297.386Z" fill="#619BA5"/>
<path d="M347.246 276.336H345.289V299.121H347.246V276.336Z" fill="#DFC2C2"/>
<path d="M358.401 286.861H334.43V288.712H358.401V286.861Z" fill="#DFC2C2"/>
<path d="M358.401 274.283H334.43V276.335H358.401V274.283Z" fill="white"/>
<path d="M334.431 274.283H332.258V299.12H334.431V274.283Z" fill="white"/>
<path d="M360.717 274.283H358.402V299.12H360.717V274.283Z" fill="white"/>
<path d="M360.718 299.119H332.258V301.541H360.718V299.119Z" fill="white"/>
<path d="M400.399 276.336H376.428V299.121H400.399V276.336Z" fill="#39828F"/>
<path d="M395.359 276.336L376.428 286.051V296.113L400.399 284.837V276.336H395.359Z" fill="#619BA5"/>
<path d="M376.428 297.386L400.399 286.225V288.249L376.428 299.12V297.386Z" fill="#619BA5"/>
<path d="M389.244 276.336H387.287V299.121H389.244V276.336Z" fill="#DFC2C2"/>
<path d="M400.399 286.861H376.428V288.712H400.399V286.861Z" fill="#DFC2C2"/>
<path d="M400.399 274.283H376.428V276.335H400.399V274.283Z" fill="white"/>
<path d="M376.428 274.283H374.254V299.12H376.428V274.283Z" fill="white"/>
<path d="M402.715 274.283H400.4V299.12H402.715V274.283Z" fill="white"/>
<path d="M402.714 299.119H374.254V301.541H402.714V299.119Z" fill="white"/>
<path d="M483.907 276.209H459.936V298.994H483.907V276.209Z" fill="#39828F"/>
<path d="M478.867 276.209L459.936 285.924V295.986L483.907 284.71V276.209H478.867Z" fill="#619BA5"/>
<path d="M459.936 297.259L483.907 286.098V288.122L459.936 298.994V297.259Z" fill="#619BA5"/>
<path d="M472.752 276.209H470.795V298.994H472.752V276.209Z" fill="#DFC2C2"/>
<path d="M483.907 286.734H459.936V288.584H483.907V286.734Z" fill="#DFC2C2"/>
<path d="M483.907 274.156H459.936V276.208H483.907V274.156Z" fill="#DFC2C2"/>
<path d="M459.936 274.156H457.762V298.993H459.936V274.156Z" fill="#DFC2C2"/>
<path d="M486.222 274.156H483.906V298.993H486.222V274.156Z" fill="#DFC2C2"/>
<path d="M486.222 298.994H457.762V301.416H486.222V298.994Z" fill="#DFC2C2"/>
<path d="M483.907 319.52H459.936V342.305H483.907V319.52Z" fill="#39828F"/>
<path d="M478.867 319.52L459.936 329.236V339.298L483.907 328.021V319.52H478.867Z" fill="#619BA5"/>
<path d="M459.936 340.569L483.907 329.408V331.432L459.936 342.304V340.569Z" fill="#619BA5"/>
<path d="M472.752 319.52H470.795V342.305H472.752V319.52Z" fill="#DFC2C2"/>
<path d="M483.907 330.043H459.936V331.894H483.907V330.043Z" fill="#DFC2C2"/>
<path d="M483.907 317.467H459.936V319.52H483.907V317.467Z" fill="#DFC2C2"/>
<path d="M459.936 317.467H457.762V342.304H459.936V317.467Z" fill="#DFC2C2"/>
<path d="M486.222 317.467H483.906V342.304H486.222V317.467Z" fill="#DFC2C2"/>
<path d="M486.222 342.305H457.762V344.727H486.222V342.305Z" fill="#DFC2C2"/>
<path d="M483.907 364.143H459.936V386.928H483.907V364.143Z" fill="#39828F"/>
<path d="M478.867 364.143L459.936 373.858V383.921L483.907 372.644V364.143H478.867Z" fill="#619BA5"/>
<path d="M459.936 385.192L483.907 374.031V376.055L459.936 386.927V385.192Z" fill="#619BA5"/>
<path d="M472.752 364.143H470.795V386.928H472.752V364.143Z" fill="#DFC2C2"/>
<path d="M483.907 374.666H459.936V376.517H483.907V374.666Z" fill="#DFC2C2"/>
<path d="M483.907 362.09H459.936V364.143H483.907V362.09Z" fill="#DFC2C2"/>
<path d="M459.936 362.09H457.762V386.927H459.936V362.09Z" fill="#DFC2C2"/>
<path d="M486.222 362.09H483.906V386.927H486.222V362.09Z" fill="#DFC2C2"/>
<path d="M486.222 386.928H457.762V389.35H486.222V386.928Z" fill="#DFC2C2"/>
<path d="M200.909 320.959H176.938V343.744H200.909V320.959Z" fill="#39828F"/>
<path d="M195.868 320.959L176.938 330.674V340.736L200.909 329.459V320.959H195.868Z" fill="#619BA5"/>
<path d="M176.938 342.009L200.909 330.848V332.873L176.938 343.745V342.009Z" fill="#619BA5"/>
<path d="M189.754 320.959H187.797V343.744H189.754V320.959Z" fill="#DFC2C2"/>
<path d="M200.909 331.484H176.938V333.334H200.909V331.484Z" fill="#DFC2C2"/>
<path d="M200.909 318.906H176.938V320.958H200.909V318.906Z" fill="white"/>
<path d="M176.938 318.906H174.764V343.743H176.938V318.906Z" fill="white"/>
<path d="M203.223 318.906H200.908V343.743H203.223V318.906Z" fill="white"/>
<path d="M203.224 343.744H174.764V346.166H203.224V343.744Z" fill="white"/>
<path d="M200.909 364.27H176.938V387.055H200.909V364.27Z" fill="#39828F"/>
<path d="M195.868 364.27L176.938 373.986V384.048L200.909 372.771V364.27H195.868Z" fill="#619BA5"/>
<path d="M176.938 385.319L200.909 374.158V376.182L176.938 387.054V385.319Z" fill="#619BA5"/>
<path d="M189.754 364.27H187.797V387.055H189.754V364.27Z" fill="#DFC2C2"/>
<path d="M200.909 374.793H176.938V376.643H200.909V374.793Z" fill="#DFC2C2"/>
<path d="M200.909 362.217H176.938V364.269H200.909V362.217Z" fill="#DFC2C2"/>
<path d="M176.938 362.217H174.764V387.054H176.938V362.217Z" fill="#DFC2C2"/>
<path d="M203.223 362.217H200.908V387.054H203.223V362.217Z" fill="#DFC2C2"/>
<path d="M203.224 387.055H174.764V389.477H203.224V387.055Z" fill="#DFC2C2"/>
<path d="M299.342 275.023H275.371V297.808H299.342V275.023Z" fill="#39828F"/>
<path d="M294.302 275.023L275.371 284.739V294.801L299.342 283.524V275.023H294.302Z" fill="#619BA5"/>
<path d="M275.371 296.073L299.342 284.912V286.936L275.371 297.808V296.073Z" fill="#619BA5"/>
<path d="M288.187 275.023H286.23V297.808H288.187V275.023Z" fill="#DFC2C2"/>
<path d="M299.342 285.549H275.371V287.399H299.342V285.549Z" fill="#DFC2C2"/>
<path d="M299.342 272.971H275.371V275.023H299.342V272.971Z" fill="white"/>
<path d="M275.371 272.971H273.197V297.808H275.371V272.971Z" fill="white"/>
<path d="M301.657 272.971H299.342V297.808H301.657V272.971Z" fill="white"/>
<path d="M301.657 297.809H273.197V300.231H301.657V297.809Z" fill="white"/>
<path d="M299.342 310.459H275.371V333.244H299.342V310.459Z" fill="#39828F"/>
<path d="M294.302 310.459L275.371 320.175V330.237L299.342 318.96V310.459H294.302Z" fill="#619BA5"/>
<path d="M275.371 331.509L299.342 320.348V322.372L275.371 333.244V331.509Z" fill="#619BA5"/>
<path d="M288.187 310.459H286.23V333.244H288.187V310.459Z" fill="#DFC2C2"/>
<path d="M299.342 320.984H275.371V322.834H299.342V320.984Z" fill="#DFC2C2"/>
<path d="M299.342 308.406H275.371V310.458H299.342V308.406Z" fill="white"/>
<path d="M275.371 308.406H273.197V333.243H275.371V308.406Z" fill="white"/>
<path d="M301.657 308.406H299.342V333.243H301.657V308.406Z" fill="white"/>
<path d="M301.657 333.244H273.197V335.666H301.657V333.244Z" fill="white"/>
<path d="M245.469 320.443H221.498V343.228H245.469V320.443Z" fill="#39828F"/>
<path d="M240.428 320.443L221.498 330.159V340.221L245.469 328.944V320.443H240.428Z" fill="#619BA5"/>
<path d="M221.498 341.495L245.469 330.334V332.358L221.498 343.23V341.495Z" fill="#619BA5"/>
<path d="M234.314 320.443H232.357V343.228H234.314V320.443Z" fill="#DFC2C2"/>
<path d="M245.469 330.969H221.498V332.819H245.469V330.969Z" fill="#DFC2C2"/>
<path d="M245.469 318.393H221.498V320.445H245.469V318.393Z" fill="white"/>
<path d="M221.498 318.393H219.324V343.23H221.498V318.393Z" fill="white"/>
<path d="M247.784 318.393H245.469V343.23H247.784V318.393Z" fill="white"/>
<path d="M247.784 343.229H219.324V345.651H247.784V343.229Z" fill="white"/>
<path d="M245.469 363.756H221.498V386.541H245.469V363.756Z" fill="#39828F"/>
<path d="M240.428 363.756L221.498 373.471V383.534L245.469 372.257V363.756H240.428Z" fill="#619BA5"/>
<path d="M221.498 384.806L245.469 373.645V375.669L221.498 386.541V384.806Z" fill="#619BA5"/>
<path d="M234.314 363.756H232.357V386.541H234.314V363.756Z" fill="#DFC2C2"/>
<path d="M245.469 374.279H221.498V376.13H245.469V374.279Z" fill="#DFC2C2"/>
<path d="M245.469 361.703H221.498V363.755H245.469V361.703Z" fill="#DFC2C2"/>
<path d="M221.498 361.703H219.324V386.54H221.498V361.703Z" fill="#DFC2C2"/>
<path d="M247.784 361.703H245.469V386.54H247.784V361.703Z" fill="#DFC2C2"/>
<path d="M247.784 386.541H219.324V388.963H247.784V386.541Z" fill="#DFC2C2"/>
<path d="M372.465 328.473H361.965V401.97H372.465V328.473Z" fill="#84AAA0"/>
<path d="M454.929 261.061H444.43V348.709H454.929V261.061Z" fill="#84AAA0"/>
<path d="M357.09 320.959H333.119V343.744H357.09V320.959Z" fill="#39828F"/>
<path d="M352.049 320.959L333.119 330.674V340.736L357.09 329.459V320.959H352.049Z" fill="#619BA5"/>
<path d="M333.119 342.009L357.09 330.848V332.873L333.119 343.745V342.009Z" fill="#619BA5"/>
<path d="M345.934 320.959H343.977V343.744H345.934V320.959Z" fill="#DFC2C2"/>
<path d="M357.09 331.484H333.119V333.334H357.09V331.484Z" fill="#DFC2C2"/>
<path d="M357.09 318.906H333.119V320.958H357.09V318.906Z" fill="white"/>
<path d="M333.119 318.906H330.945V343.743H333.119V318.906Z" fill="white"/>
<path d="M359.405 318.906H357.09V343.743H359.405V318.906Z" fill="white"/>
<path d="M359.405 343.744H330.945V346.166H359.405V343.744Z" fill="white"/>
<path d="M357.09 364.27H333.119V387.055H357.09V364.27Z" fill="#39828F"/>
<path d="M352.049 364.27L333.119 373.986V384.048L357.09 372.771V364.27H352.049Z" fill="#619BA5"/>
<path d="M333.119 385.319L357.09 374.158V376.182L333.119 387.054V385.319Z" fill="#619BA5"/>
<path d="M345.936 364.27H343.979V387.055H345.936V364.27Z" fill="#DFC2C2"/>
<path d="M357.09 374.793H333.119V376.643H357.09V374.793Z" fill="#DFC2C2"/>
<path d="M357.09 362.217H333.119V364.269H357.09V362.217Z" fill="#DFC2C2"/>
<path d="M333.119 362.217H330.945V387.054H333.119V362.217Z" fill="#DFC2C2"/>
<path d="M359.405 362.217H357.09V387.054H359.405V362.217Z" fill="#DFC2C2"/>
<path d="M359.405 387.055H330.945V389.477H359.405V387.055Z" fill="#DFC2C2"/>
<path d="M401.649 320.443H377.678V343.228H401.649V320.443Z" fill="#39828F"/>
<path d="M396.608 320.443L377.678 330.159V340.221L401.649 328.944V320.443H396.608Z" fill="#619BA5"/>
<path d="M377.678 341.495L401.649 330.334V332.358L377.678 343.23V341.495Z" fill="#619BA5"/>
<path d="M390.494 320.443H388.537V343.228H390.494V320.443Z" fill="#DFC2C2"/>
<path d="M401.649 330.969H377.678V332.819H401.649V330.969Z" fill="#DFC2C2"/>
<path d="M401.649 318.393H377.678V320.445H401.649V318.393Z" fill="white"/>
<path d="M377.678 318.393H375.504V343.23H377.678V318.393Z" fill="white"/>
<path d="M403.963 318.393H401.648V343.23H403.963V318.393Z" fill="white"/>
<path d="M403.964 343.229H375.504V345.651H403.964V343.229Z" fill="white"/>
<path d="M401.649 363.756H377.678V386.541H401.649V363.756Z" fill="#39828F"/>
<path d="M396.608 363.756L377.678 373.471V383.534L401.649 372.257V363.756H396.608Z" fill="#619BA5"/>
<path d="M377.678 384.806L401.649 373.645V375.669L377.678 386.541V384.806Z" fill="#619BA5"/>
<path d="M390.492 363.756H388.535V386.541H390.492V363.756Z" fill="#DFC2C2"/>
<path d="M401.649 374.279H377.678V376.13H401.649V374.279Z" fill="#DFC2C2"/>
<path d="M401.649 361.703H377.678V363.755H401.649V361.703Z" fill="#DFC2C2"/>
<path d="M377.678 361.703H375.504V386.54H377.678V361.703Z" fill="#DFC2C2"/>
<path d="M403.963 361.703H401.648V386.54H403.963V361.703Z" fill="#DFC2C2"/>
<path d="M403.964 386.541H375.504V388.963H403.964V386.541Z" fill="#DFC2C2"/>
<path d="M165.537 252.787L250.408 218.664H325.217L411.838 252.787H165.537Z" fill="#E76642"/>
<path d="M352.805 229.531H422.775L495.397 252.786H411.838L352.805 229.531Z" fill="#C05245"/>
<path d="M169.065 258.912H88.1309V401.968H169.065V258.912Z" fill="#A3C6B4"/>
<path d="M118.342 276.209H94.3711V298.994H118.342V276.209Z" fill="#39828F"/>
<path d="M99.4111 276.209L118.342 285.924V295.986L94.3711 284.71V276.209H99.4111Z" fill="#619BA5"/>
<path d="M118.342 297.259L94.3711 286.098V288.122L118.342 298.994V297.259Z" fill="#619BA5"/>
<path d="M107.484 276.209H105.527V298.994H107.484V276.209Z" fill="#DFC2C2"/>
<path d="M118.342 286.734H94.3711V288.584H118.342V286.734Z" fill="#DFC2C2"/>
<path d="M118.342 274.156H94.3711V276.208H118.342V274.156Z" fill="#DFC2C2"/>
<path d="M120.516 274.156H118.342V298.993H120.516V274.156Z" fill="#DFC2C2"/>
<path d="M94.3716 274.156H92.0566V298.993H94.3716V274.156Z" fill="#DFC2C2"/>
<path d="M120.517 298.994H92.0566V301.416H120.517V298.994Z" fill="#DFC2C2"/>
<path d="M118.342 319.52H94.3711V342.305H118.342V319.52Z" fill="#39828F"/>
<path d="M99.4111 319.52L118.342 329.236V339.298L94.3711 328.021V319.52H99.4111Z" fill="#619BA5"/>
<path d="M118.342 340.569L94.3711 329.408V331.432L118.342 342.304V340.569Z" fill="#619BA5"/>
<path d="M107.484 319.52H105.527V342.305H107.484V319.52Z" fill="#DFC2C2"/>
<path d="M118.342 330.043H94.3711V331.894H118.342V330.043Z" fill="#DFC2C2"/>
<path d="M118.342 317.467H94.3711V319.52H118.342V317.467Z" fill="#DFC2C2"/>
<path d="M120.516 317.467H118.342V342.304H120.516V317.467Z" fill="#DFC2C2"/>
<path d="M94.3716 317.467H92.0566V342.304H94.3716V317.467Z" fill="#DFC2C2"/>
<path d="M120.517 342.305H92.0566V344.727H120.517V342.305Z" fill="#DFC2C2"/>
<path d="M118.342 364.143H94.3711V386.928H118.342V364.143Z" fill="#39828F"/>
<path d="M99.4111 364.143L118.342 373.858V383.921L94.3711 372.644V364.143H99.4111Z" fill="#619BA5"/>
<path d="M118.342 385.192L94.3711 374.031V376.055L118.342 386.927V385.192Z" fill="#619BA5"/>
<path d="M107.484 364.143H105.527V386.928H107.484V364.143Z" fill="#DFC2C2"/>
<path d="M118.342 374.666H94.3711V376.517H118.342V374.666Z" fill="#DFC2C2"/>
<path d="M118.342 362.09H94.3711V364.143H118.342V362.09Z" fill="#DFC2C2"/>
<path d="M120.516 362.09H118.342V386.927H120.516V362.09Z" fill="#DFC2C2"/>
<path d="M94.3716 362.09H92.0566V386.927H94.3716V362.09Z" fill="#DFC2C2"/>
<path d="M120.517 386.928H92.0566V389.35H120.517V386.928Z" fill="#DFC2C2"/>
<path d="M225.473 229.531H155.503L82.8809 252.786H166.44L225.473 229.531Z" fill="#C05245"/>
<path d="M409.213 261.1H169.037V265.529H409.213V261.1Z" fill="#AFC4A7"/>
<path d="M260.908 258.912H250.408V401.968H260.908V258.912Z" fill="#84AAA0"/>
<path d="M325.218 258.912H314.719V401.968H325.218V258.912Z" fill="#84AAA0"/>
<path d="M330.944 348.709H244.064V358.598H330.944V348.709Z" fill="white"/>
<path d="M500.647 252.787H79.3535V261.099H500.647V252.787Z" fill="#84AAA0"/>
<path d="M500.647 256.943H79.3535V261.099H500.647V256.943Z" fill="#709286"/>
<path d="M169.038 261.1H88.1309V265.529H169.038V261.1Z" fill="#84AAA0"/>
<path d="M133.847 261.061H123.348V348.709H133.847V261.061Z" fill="#84AAA0"/>
<path d="M490.134 261.1H409.227V265.529H490.134V261.1Z" fill="#84AAA0"/>
<path d="M330.944 352.26H244.064V358.596H330.944V352.26Z" fill="#A3C6B4"/>
<path d="M169.037 265.527L131.326 401.801H169.225L169.037 265.527Z" fill="#95B4A1"/>
<path d="M164.278 276.209H140.307V298.994H164.278V276.209Z" fill="#39828F"/>
<path d="M145.348 276.209L164.278 285.924V295.986L140.307 284.71V276.209H145.348Z" fill="#619BA5"/>
<path d="M164.278 297.259L140.307 286.098V288.122L164.278 298.994V297.259Z" fill="#619BA5"/>
<path d="M153.42 276.209H151.463V298.994H153.42V276.209Z" fill="#DFC2C2"/>
<path d="M164.278 286.734H140.307V288.584H164.278V286.734Z" fill="#DFC2C2"/>
<path d="M164.278 274.156H140.307V276.208H164.278V274.156Z" fill="#DFC2C2"/>
<path d="M166.451 274.156H164.277V298.993H166.451V274.156Z" fill="#DFC2C2"/>
<path d="M140.307 274.156H137.992V298.993H140.307V274.156Z" fill="#DFC2C2"/>
<path d="M166.452 298.994H137.992V301.416H166.452V298.994Z" fill="#DFC2C2"/>
<path d="M164.278 319.52H140.307V342.305H164.278V319.52Z" fill="#39828F"/>
<path d="M145.348 319.52L164.278 329.236V339.298L140.307 328.021V319.52H145.348Z" fill="#619BA5"/>
<path d="M164.278 340.569L140.307 329.408V331.432L164.278 342.304V340.569Z" fill="#619BA5"/>
<path d="M153.42 319.52H151.463V342.305H153.42V319.52Z" fill="#DFC2C2"/>
<path d="M164.278 330.043H140.307V331.894H164.278V330.043Z" fill="#DFC2C2"/>
<path d="M164.278 317.467H140.307V319.52H164.278V317.467Z" fill="#DFC2C2"/>
<path d="M166.451 317.467H164.277V342.304H166.451V317.467Z" fill="#DFC2C2"/>
<path d="M140.307 317.467H137.992V342.304H140.307V317.467Z" fill="#DFC2C2"/>
<path d="M166.452 342.305H137.992V344.727H166.452V342.305Z" fill="#DFC2C2"/>
<path d="M164.278 364.143H140.307V386.928H164.278V364.143Z" fill="#39828F"/>
<path d="M145.348 364.143L164.278 373.858V383.921L140.307 372.644V364.143H145.348Z" fill="#619BA5"/>
<path d="M164.278 385.192L140.307 374.031V376.055L164.278 386.927V385.192Z" fill="#619BA5"/>
<path d="M153.42 364.143H151.463V386.928H153.42V364.143Z" fill="#DFC2C2"/>
<path d="M164.278 374.666H140.307V376.517H164.278V374.666Z" fill="#DFC2C2"/>
<path d="M164.278 362.09H140.307V364.143H164.278V362.09Z" fill="#DFC2C2"/>
<path d="M166.451 362.09H164.277V386.927H166.451V362.09Z" fill="#DFC2C2"/>
<path d="M140.307 362.09H137.992V386.927H140.307V362.09Z" fill="#DFC2C2"/>
<path d="M166.452 386.928H137.992V389.35H166.452V386.928Z" fill="#DFC2C2"/>
<path d="M409.402 265.527L447.113 401.801H409.213L409.402 265.527Z" fill="#95B4A1"/>
<path d="M437.971 276.209H414V298.994H437.971V276.209Z" fill="#39828F"/>
<path d="M432.93 276.209L414 285.924V295.986L437.971 284.71V276.209H432.93Z" fill="#619BA5"/>
<path d="M414 297.259L437.971 286.098V288.122L414 298.994V297.259Z" fill="#619BA5"/>
<path d="M426.816 276.209H424.859V298.994H426.816V276.209Z" fill="#DFC2C2"/>
<path d="M437.971 286.734H414V288.584H437.971V286.734Z" fill="#DFC2C2"/>
<path d="M437.971 274.156H414V276.208H437.971V274.156Z" fill="#DFC2C2"/>
<path d="M413.999 274.156H411.826V298.993H413.999V274.156Z" fill="#DFC2C2"/>
<path d="M440.287 274.156H437.971V298.993H440.287V274.156Z" fill="#DFC2C2"/>
<path d="M440.286 298.994H411.826V301.416H440.286V298.994Z" fill="#DFC2C2"/>
<path d="M437.971 319.52H414V342.305H437.971V319.52Z" fill="#39828F"/>
<path d="M432.93 319.52L414 329.236V339.298L437.971 328.021V319.52H432.93Z" fill="#619BA5"/>
<path d="M414 340.569L437.971 329.408V331.432L414 342.304V340.569Z" fill="#619BA5"/>
<path d="M426.816 319.52H424.859V342.305H426.816V319.52Z" fill="#DFC2C2"/>
<path d="M437.971 330.043H414V331.894H437.971V330.043Z" fill="#DFC2C2"/>
<path d="M437.971 317.467H414V319.52H437.971V317.467Z" fill="#DFC2C2"/>
<path d="M413.999 317.467H411.826V342.304H413.999V317.467Z" fill="#DFC2C2"/>
<path d="M440.287 317.467H437.971V342.304H440.287V317.467Z" fill="#DFC2C2"/>
<path d="M440.286 342.305H411.826V344.727H440.286V342.305Z" fill="#DFC2C2"/>
<path d="M437.971 364.143H414V386.928H437.971V364.143Z" fill="#39828F"/>
<path d="M432.93 364.143L414 373.858V383.921L437.971 372.644V364.143H432.93Z" fill="#619BA5"/>
<path d="M414 385.192L437.971 374.031V376.055L414 386.927V385.192Z" fill="#619BA5"/>
<path d="M426.816 364.143H424.859V386.928H426.816V364.143Z" fill="#DFC2C2"/>
<path d="M437.971 374.666H414V376.517H437.971V374.666Z" fill="#DFC2C2"/>
<path d="M437.971 362.09H414V364.143H437.971V362.09Z" fill="#DFC2C2"/>
<path d="M413.999 362.09H411.826V386.927H413.999V362.09Z" fill="#DFC2C2"/>
<path d="M440.287 362.09H437.971V386.927H440.287V362.09Z" fill="#DFC2C2"/>
<path d="M440.286 386.928H411.826V389.35H440.286V386.928Z" fill="#DFC2C2"/>
<path d="M211.573 303.463H196.1V306.986H211.573V303.463Z" fill="#AFC4A7"/>
<path d="M218.231 308.699H202.758V312.222H218.231V308.699Z" fill="#AFC4A7"/>
<path d="M229.233 303.463H213.76V306.986H229.233V303.463Z" fill="#AFC4A7"/>
<path d="M225.969 313.59H210.496V317.113H225.969V313.59Z" fill="#AFC4A7"/>
<path d="M364.473 303.635H349V307.158H364.473V303.635Z" fill="#AFC4A7"/>
<path d="M371.131 308.869H355.658V312.392H371.131V308.869Z" fill="#AFC4A7"/>
<path d="M382.133 303.635H366.66V307.158H382.133V303.635Z" fill="#AFC4A7"/>
<path d="M378.868 313.762H363.395V317.285H378.868V313.762Z" fill="#AFC4A7"/>
<path d="M389.61 352.473H378.131V355.087H389.61V352.473Z" fill="#AFC4A7"/>
<path d="M397.772 348.59H386.293V351.204H397.772V348.59Z" fill="#AFC4A7"/>
<path d="M395.35 356.102H383.871V358.716H395.35V356.102Z" fill="#AFC4A7"/>
<path d="M189.456 352.473H177.977V355.087H189.456V352.473Z" fill="#AFC4A7"/>
<path d="M197.616 348.59H186.137V351.204H197.616V348.59Z" fill="#AFC4A7"/>
<path d="M195.197 356.102H183.717V358.716H195.197V356.102Z" fill="#AFC4A7"/>
<path d="M300.859 365.158H273.557V401.906H300.859V365.158Z" fill="white"/>
<path d="M285.474 366.959H276.348V374.818H285.474V366.959Z" fill="#619BA5"/>
<path d="M298.269 366.959H289.143V374.818H298.269V366.959Z" fill="#619BA5"/>
<path d="M285.474 377.621H276.348V385.48H285.474V377.621Z" fill="#619BA5"/>
<path d="M298.269 377.621H289.143V385.48H298.269V377.621Z" fill="#619BA5"/>
<path d="M285.474 388.281H276.348V396.14H285.474V388.281Z" fill="#619BA5"/>
<path d="M298.269 388.281H289.143V396.14H298.269V388.281Z" fill="#619BA5"/>
<path d="M478.429 388.055L475.426 393.038V411.483H481.432V393.038L478.429 388.055Z" fill="white"/>
<path d="M486.454 388.055L483.451 393.038V411.483H489.457V393.038L486.454 388.055Z" fill="white"/>
<path d="M494.482 388.055L491.479 393.038V411.483H497.485V393.038L494.482 388.055Z" fill="white"/>
<path d="M502.507 388.055L499.504 393.038V411.483H505.51V393.038L502.507 388.055Z" fill="white"/>
<path d="M510.534 388.055L507.531 393.038V411.483H513.537V393.038L510.534 388.055Z" fill="white"/>
<path d="M518.56 388.055L515.557 393.038V411.483H521.563V393.038L518.56 388.055Z" fill="white"/>
<path d="M526.585 388.055L523.582 393.038V411.483H529.588V393.038L526.585 388.055Z" fill="white"/>
<path d="M534.612 388.055L531.609 393.038V411.483H537.615V393.038L534.612 388.055Z" fill="white"/>
<path d="M537.615 396.387H475.426V397.19H537.615V396.387Z" fill="white"/>
<path d="M537.615 404.412H475.426V405.215H537.615V404.412Z" fill="white"/>
<path d="M46.9503 385.057L43.9473 390.04V408.486H49.9533V390.04L46.9503 385.057Z" fill="white"/>
<path d="M54.9757 385.057L51.9727 390.04V408.486H57.9787V390.04L54.9757 385.057Z" fill="white"/>
<path d="M63.003 385.057L60 390.04V408.486H66.006V390.04L63.003 385.057Z" fill="white"/>
<path d="M71.0284 385.057L68.0254 390.04V408.486H74.0314V390.04L71.0284 385.057Z" fill="white"/>
<path d="M79.0538 385.057L76.0508 390.04V408.486H82.0578V390.04L79.0538 385.057Z" fill="white"/>
<path d="M87.0811 385.057L84.0781 390.04V408.486H90.0841V390.04L87.0811 385.057Z" fill="white"/>
<path d="M95.1065 385.057L92.1035 390.04V408.486H98.1095V390.04L95.1065 385.057Z" fill="white"/>
<path d="M103.134 385.057L100.131 390.04V408.486H106.137V390.04L103.134 385.057Z" fill="white"/>
<path d="M106.136 393.389H43.9473V394.192H106.136V393.389Z" fill="white"/>
<path d="M106.136 401.414H43.9473V402.217H106.136V401.414Z" fill="white"/>
<path d="M338.996 414.523H325.59V416.434H338.996V414.523Z" fill="#46514B"/>
<path d="M332.74 357.611L330.952 357.88L329.09 344.676H334.341L332.74 357.611Z" fill="#FFE1C7"/>
<path d="M337.917 344.341C337.917 344.526 337.742 344.676 337.526 344.676H325.907C325.691 344.676 325.516 344.526 325.516 344.341C325.516 344.156 325.691 344.006 325.907 344.006H337.526C337.742 344.006 337.917 344.156 337.917 344.341Z" fill="#46514B"/>
<path d="M331.717 339.941C329.095 339.941 326.969 341.761 326.969 344.006H336.465C336.465 341.76 334.339 339.941 331.717 339.941Z" fill="#46514B"/>
<path d="M335.347 357.444C335.347 357.629 335.154 357.779 334.916 357.779H328.629C328.391 357.779 328.197 357.629 328.197 357.444C328.197 357.259 328.39 357.109 328.629 357.109H334.916C335.154 357.109 335.347 357.259 335.347 357.444Z" fill="#46514B"/>
<path d="M326.969 344.676L329.482 357.109H330.738L328.309 344.676H326.969Z" fill="#46514B"/>
<path d="M336.509 344.676L333.995 357.109H332.74L335.168 344.676H336.509Z" fill="#46514B"/>
<path d="M332.74 357.443H330.953V415.619H332.74V357.443Z" fill="#46514B"/>
<path d="M551.551 410.844H538.145V412.755H551.551V410.844Z" fill="#46514B"/>
<path d="M545.295 353.931L543.507 354.201L541.645 340.996H546.896L545.295 353.931Z" fill="#FFE1C7"/>
<path d="M550.471 340.661C550.471 340.846 550.296 340.996 550.08 340.996H538.461C538.245 340.996 538.07 340.846 538.07 340.661C538.07 340.476 538.245 340.326 538.461 340.326H550.08C550.296 340.326 550.471 340.476 550.471 340.661Z" fill="#46514B"/>
<path d="M544.271 336.262C541.649 336.262 539.523 338.082 539.523 340.327H549.019C549.019 338.082 546.893 336.262 544.271 336.262Z" fill="#46514B"/>
<path d="M547.902 353.765C547.902 353.95 547.709 354.1 547.471 354.1H541.184C540.946 354.1 540.752 353.95 540.752 353.765C540.752 353.58 540.945 353.43 541.184 353.43H547.471C547.709 353.431 547.902 353.58 547.902 353.765Z" fill="#46514B"/>
<path d="M539.523 340.996L542.036 353.43H543.292L540.863 340.996H539.523Z" fill="#46514B"/>
<path d="M549.064 340.996L546.55 353.43H545.295L547.723 340.996H549.064Z" fill="#46514B"/>
<path d="M545.295 353.764H543.508V411.94H545.295V353.764Z" fill="#46514B"/>
<path d="M37.5076 413.561H24.1016V415.472H37.5076V413.561Z" fill="#46514B"/>
<path d="M31.2506 356.647L29.4636 356.917L27.6016 343.713H32.8526L31.2506 356.647Z" fill="#FFE1C7"/>
<path d="M36.4273 343.378C36.4273 343.563 36.2523 343.713 36.0363 343.713H24.4183C24.2023 343.713 24.0273 343.563 24.0273 343.378C24.0273 343.193 24.2023 343.043 24.4183 343.043H36.0373C36.2523 343.043 36.4273 343.193 36.4273 343.378Z" fill="#46514B"/>
<path d="M30.2265 338.979C27.6045 338.979 25.4785 340.799 25.4785 343.044H34.9745C34.9745 340.798 32.8485 338.979 30.2265 338.979Z" fill="#46514B"/>
<path d="M33.858 356.48C33.858 356.665 33.665 356.815 33.427 356.815H27.14C26.902 356.815 26.709 356.665 26.709 356.48C26.709 356.295 26.902 356.145 27.14 356.145H33.427C33.665 356.146 33.858 356.295 33.858 356.48Z" fill="#46514B"/>
<path d="M25.4785 343.713L27.9925 356.146H29.2475L26.8195 343.713H25.4785Z" fill="#46514B"/>
<path d="M35.021 343.713L32.508 356.146H31.252L33.681 343.713H35.021Z" fill="#46514B"/>
<path d="M31.2528 356.48H29.4648V414.656H31.2528V356.48Z" fill="#46514B"/>
<path d="M249.996 415.523H236.59V417.434H249.996V415.523Z" fill="#46514B"/>
<path d="M243.74 358.611L241.952 358.88L240.09 345.676H245.341L243.74 358.611Z" fill="#FFE1C7"/>
<path d="M248.917 345.341C248.917 345.526 248.742 345.676 248.526 345.676H236.907C236.691 345.676 236.516 345.526 236.516 345.341C236.516 345.156 236.691 345.006 236.907 345.006H248.526C248.742 345.006 248.917 345.156 248.917 345.341Z" fill="#46514B"/>
<path d="M242.717 340.941C240.095 340.941 237.969 342.761 237.969 345.006H247.465C247.465 342.76 245.339 340.941 242.717 340.941Z" fill="#46514B"/>
<path d="M246.346 358.444C246.346 358.629 246.153 358.779 245.914 358.779H239.627C239.389 358.779 239.195 358.629 239.195 358.444C239.195 358.259 239.388 358.109 239.627 358.109H245.914C246.153 358.109 246.346 358.259 246.346 358.444Z" fill="#46514B"/>
<path d="M237.969 345.676L240.482 358.109H241.738L239.309 345.676H237.969Z" fill="#46514B"/>
<path d="M247.509 345.676L244.995 358.109H243.74L246.168 345.676H247.509Z" fill="#46514B"/>
<path d="M243.74 358.443H241.953V416.619H243.74V358.443Z" fill="#46514B"/>
<path d="M401.829 399.244C401.829 393.075 396.828 388.073 390.658 388.073C389.338 388.073 388.078 388.314 386.903 388.734C385.827 386.474 383.541 384.9 380.871 384.9C379.007 384.9 377.324 385.664 376.111 386.892C374.684 385.654 372.827 384.9 370.79 384.9C366.299 384.9 362.658 388.541 362.658 393.032C362.658 393.048 362.66 393.063 362.66 393.078C356.603 393.545 351.83 398.597 351.83 404.774C351.83 411.259 357.087 416.516 363.572 416.516C366.676 416.516 369.491 415.303 371.59 413.336C373.342 415.146 375.637 416.254 378.159 416.254C379.909 416.254 381.552 415.72 382.98 414.791C384.287 415.856 386.094 416.516 388.091 416.516C392.079 416.516 395.311 413.887 395.311 410.645C395.311 410.239 395.26 409.843 395.164 409.46C399.088 407.728 401.829 403.809 401.829 399.244Z" fill="#78912A"/>
<path d="M225.907 395.725C225.907 389.556 220.906 384.554 214.736 384.554C213.416 384.554 212.156 384.795 210.981 385.215C209.905 382.955 207.619 381.381 204.949 381.381C203.085 381.381 201.403 382.144 200.189 383.373C198.762 382.135 196.905 381.381 194.868 381.381C190.377 381.381 186.736 385.022 186.736 389.513C186.736 389.529 186.738 389.544 186.738 389.559C180.681 390.026 175.908 395.078 175.908 401.255C175.908 407.74 181.165 412.997 187.65 412.997C190.754 412.997 193.569 411.784 195.668 409.817C197.42 411.627 199.715 412.735 202.237 412.735C203.987 412.735 205.63 412.201 207.058 411.272C208.365 412.337 210.172 412.997 212.169 412.997C216.157 412.997 219.389 410.368 219.389 407.126C219.389 406.72 219.338 406.324 219.241 405.941C223.165 404.208 225.907 400.29 225.907 395.725Z" fill="#78912A"/>
<path d="M309.778 415.263H302.332L300.518 410.094H311.325L309.778 415.263Z" fill="#9F7A5C"/>
<path d="M306.582 399.725H305.49V410.093H306.582V399.725Z" fill="#B6712C"/>
<path d="M314.455 395.37C314.455 399.858 310.817 403.497 306.329 403.497C301.841 403.497 298.203 399.859 298.203 395.37C298.203 390.882 301.841 387.244 306.329 387.244C310.817 387.244 314.455 390.882 314.455 395.37Z" fill="#7DA032"/>
<path d="M308.38 389.625C310.274 389.625 312.013 390.278 313.394 391.365C311.997 388.906 309.359 387.244 306.329 387.244C301.841 387.244 298.203 390.882 298.203 395.371C298.203 397.965 299.423 400.269 301.315 401.757C300.643 400.574 300.254 399.209 300.254 397.751C300.254 393.263 303.892 389.625 308.38 389.625Z" fill="#A6C642"/>
<path d="M306.581 403.49H306.035V410.092H306.581V403.49Z" fill="#9B5E27"/>
<path d="M301.426 412.678H310.552L309.779 415.262H302.333L301.426 412.678Z" fill="#876750"/>
<path d="M271.533 415.585H264.087L262.273 410.416H273.08L271.533 415.585Z" fill="#9F7A5C"/>
<path d="M268.338 400.047H267.246V410.415H268.338V400.047Z" fill="#B6712C"/>
<path d="M269.048 403.757C273.503 403.21 276.67 399.155 276.123 394.7C275.576 390.245 271.521 387.078 267.067 387.625C262.613 388.172 259.445 392.227 259.993 396.681C260.54 401.136 264.594 404.304 269.048 403.757Z" fill="#7DA032"/>
<path d="M270.136 389.947C272.03 389.947 273.768 390.6 275.15 391.687C273.753 389.228 271.115 387.566 268.085 387.566C263.597 387.566 259.959 391.204 259.959 395.693C259.959 398.287 261.178 400.592 263.071 402.079C262.399 400.896 262.01 399.531 262.01 398.073C262.01 393.586 265.648 389.947 270.136 389.947Z" fill="#A6C642"/>
<path d="M268.337 403.812H267.791V410.414H268.337V403.812Z" fill="#9B5E27"/>
<path d="M263.18 413.002H272.306L271.533 415.586H264.087L263.18 413.002Z" fill="#876750"/>
<path d="M83.539 475.336H14.332V479.497H83.539V475.336Z" fill="#8C726F"/>
<path d="M164.191 475.336H94.9844V479.497H164.191V475.336Z" fill="#8C726F"/>
<path d="M246.816 475.336H177.609V479.497H246.816V475.336Z" fill="#8C726F"/>
<path d="M327.469 475.336H258.262V479.497H327.469V475.336Z" fill="#8C726F"/>
<path d="M405.9 475.336H336.693V479.497H405.9V475.336Z" fill="#8C726F"/>
<path d="M486.551 475.336H417.344V479.497H486.551V475.336Z" fill="#8C726F"/>
<path d="M570.676 475.336H501.469V479.497H570.676V475.336Z" fill="#8C726F"/>
<path d="M580 429.5H0V449.219H580V429.5Z" fill="#9B8D8C"/>
<path d="M580 428.219H0V431.282H580V428.219Z" fill="white"/>
<path d="M109.928 53.2844C109.894 53.2844 109.861 53.2884 109.827 53.2884C109.077 48.3714 103.8 44.5594 97.3886 44.5594C95.3476 44.5594 93.4266 44.9534 91.7236 45.6394C89.5676 41.0264 83.9796 37.7324 77.4056 37.7324C70.9626 37.7324 65.4626 40.8944 63.2156 45.3624C61.2066 44.8434 59.0636 44.5594 56.8356 44.5594C45.4746 44.5594 36.2656 51.8534 36.2656 60.8514C36.2656 69.8494 45.4756 77.1434 56.8356 77.1434C62.7916 77.1434 68.1536 75.1364 71.9096 71.9324C74.9766 75.0664 80.3256 77.1434 86.4176 77.1434C92.1166 77.1434 97.1676 75.3254 100.307 72.5254C102.823 74.3994 106.201 75.5554 109.927 75.5554C117.692 75.5554 123.987 70.5694 123.987 64.4194C123.988 58.2704 117.693 53.2844 109.928 53.2844Z" fill="white"/>
<path d="M178.568 138.977C178.543 138.977 178.518 138.98 178.492 138.98C177.929 135.287 173.965 132.423 169.15 132.423C167.617 132.423 166.174 132.719 164.895 133.234C163.275 129.769 159.078 127.295 154.14 127.295C149.301 127.295 145.169 129.67 143.481 133.026C141.972 132.636 140.362 132.423 138.689 132.423C130.155 132.423 123.238 137.902 123.238 144.661C123.238 151.42 130.156 156.899 138.689 156.899C143.163 156.899 147.19 155.391 150.012 152.985C152.315 155.339 156.334 156.899 160.91 156.899C165.191 156.899 168.985 155.534 171.342 153.43C173.232 154.838 175.769 155.706 178.568 155.706C184.401 155.706 189.129 151.961 189.129 147.341C189.129 142.722 184.401 138.977 178.568 138.977Z" fill="white"/>
<path d="M458.621 140.764C458.595 140.764 458.571 140.767 458.545 140.767C457.982 137.074 454.018 134.21 449.203 134.21C447.67 134.21 446.227 134.506 444.948 135.021C443.328 131.556 439.131 129.082 434.193 129.082C429.354 129.082 425.222 131.457 423.534 134.813C422.025 134.423 420.415 134.21 418.742 134.21C410.208 134.21 403.291 139.689 403.291 146.448C403.291 153.207 410.209 158.686 418.742 158.686C423.216 158.686 427.243 157.178 430.065 154.772C432.368 157.126 436.387 158.686 440.962 158.686C445.243 158.686 449.037 157.321 451.394 155.217C453.284 156.625 455.821 157.493 458.62 157.493C464.453 157.493 469.181 153.748 469.181 149.128C469.182 144.509 464.454 140.764 458.621 140.764Z" fill="white"/>
<path d="M100.951 412.52V411.021H158.934V412.62L100.951 412.52Z" fill="#A86529"/>
<path d="M100.592 412.621L87.543 423.311H149.592L158.934 412.621H100.592Z" fill="#775F5B"/>
<path d="M104.066 407.494C104.066 407.494 110.512 410.103 111.049 416.165H112.277C112.277 416.165 111.663 409.105 104.066 407.494Z" fill="#7DA032"/>
<path d="M113.126 416.165C113.126 416.165 112.659 410.792 106.877 409.566C106.877 409.566 111.783 411.552 112.191 416.165H113.126Z" fill="#698428"/>
<path d="M120.123 407.455C120.123 407.455 113.677 410.064 113.14 416.126H111.912C111.912 416.126 112.526 409.067 120.123 407.455Z" fill="#7DA032"/>
<path d="M112.474 416.545C112.474 416.545 110.044 411.73 114.315 407.645C114.315 407.645 111.188 411.915 113.268 416.053L112.474 416.545Z" fill="#698428"/>
<path d="M113.177 404.648C113.177 404.648 109.756 410.702 113.11 415.781L112.149 416.545C112.149 416.545 108.234 410.638 113.177 404.648Z" fill="#A6C642"/>
<path d="M112.392 418.391C114.914 418.391 116.958 417.601 116.958 416.626C116.958 415.652 114.914 414.861 112.392 414.861C109.87 414.861 107.826 415.652 107.826 416.626C107.826 417.601 109.87 418.391 112.392 418.391Z" fill="#775F5B"/>
<path d="M114.314 406.996C114.314 406.996 120.76 409.605 121.297 415.667H122.525C122.525 415.667 121.911 408.608 114.314 406.996Z" fill="#7DA032"/>
<path d="M123.372 415.667C123.372 415.667 122.905 410.294 117.123 409.068C117.123 409.068 122.029 411.054 122.437 415.667H123.372Z" fill="#698428"/>
<path d="M130.371 406.959C130.371 406.959 123.925 409.568 123.388 415.63H122.16C122.16 415.63 122.774 408.57 130.371 406.959Z" fill="#7DA032"/>
<path d="M122.722 416.046C122.722 416.046 120.292 411.231 124.563 407.146C124.563 407.146 121.436 411.416 123.516 415.554L122.722 416.046Z" fill="#698428"/>
<path d="M123.425 404.15C123.425 404.15 120.004 410.204 123.358 415.283L122.397 416.047C122.397 416.047 118.482 410.14 123.425 404.15Z" fill="#A6C642"/>
<path d="M122.64 417.893C125.162 417.893 127.206 417.103 127.206 416.128C127.206 415.153 125.162 414.363 122.64 414.363C120.118 414.363 118.074 415.153 118.074 416.128C118.074 417.103 120.118 417.893 122.64 417.893Z" fill="#775F5B"/>
<path d="M127.672 406.996C127.672 406.996 134.118 409.605 134.655 415.667H135.883C135.883 415.667 135.269 408.608 127.672 406.996Z" fill="#7DA032"/>
<path d="M136.731 415.667C136.731 415.667 136.264 410.294 130.482 409.068C130.482 409.068 135.388 411.054 135.797 415.667H136.731Z" fill="#698428"/>
<path d="M143.729 406.959C143.729 406.959 137.283 409.568 136.746 415.63H135.518C135.518 415.63 136.132 408.57 143.729 406.959Z" fill="#7DA032"/>
<path d="M136.079 416.046C136.079 416.046 133.649 411.231 137.92 407.146C137.92 407.146 134.793 411.416 136.873 415.554L136.079 416.046Z" fill="#698428"/>
<path d="M136.783 404.15C136.783 404.15 133.362 410.204 136.716 415.283L135.755 416.047C135.755 416.047 131.84 410.14 136.783 404.15Z" fill="#A6C642"/>
<path d="M135.998 417.893C138.519 417.893 140.564 417.103 140.564 416.128C140.564 415.153 138.519 414.363 135.998 414.363C133.476 414.363 131.432 415.153 131.432 416.128C131.432 417.103 133.476 417.893 135.998 417.893Z" fill="#775F5B"/>
<path d="M139.621 406.996C139.621 406.996 146.067 409.605 146.604 415.667H147.832C147.832 415.667 147.218 408.608 139.621 406.996Z" fill="#7DA032"/>
<path d="M148.679 415.667C148.679 415.667 148.212 410.294 142.43 409.068C142.43 409.068 147.336 411.054 147.744 415.667H148.679Z" fill="#698428"/>
<path d="M155.676 406.959C155.676 406.959 149.23 409.568 148.693 415.63H147.465C147.465 415.63 148.08 408.57 155.676 406.959Z" fill="#7DA032"/>
<path d="M148.028 416.046C148.028 416.046 145.598 411.231 149.869 407.146C149.869 407.146 146.742 411.416 148.822 415.554L148.028 416.046Z" fill="#698428"/>
<path d="M148.732 404.15C148.732 404.15 145.311 410.204 148.665 415.283L147.704 416.047C147.704 416.047 143.789 410.14 148.732 404.15Z" fill="#A6C642"/>
<path d="M147.947 417.893C150.469 417.893 152.513 417.103 152.513 416.128C152.513 415.153 150.469 414.363 147.947 414.363C145.425 414.363 143.381 415.153 143.381 416.128C143.381 417.103 145.425 417.893 147.947 417.893Z" fill="#775F5B"/>
<path d="M96.8457 410.588C96.8457 410.588 103.292 413.197 103.829 419.259H105.057C105.057 419.259 104.443 412.2 96.8457 410.588Z" fill="#7DA032"/>
<path d="M105.903 419.259C105.903 419.259 105.436 413.886 99.6543 412.66C99.6543 412.66 104.56 414.646 104.969 419.259H105.903Z" fill="#698428"/>
<path d="M112.9 410.551C112.9 410.551 106.454 413.16 105.917 419.222H104.689C104.689 419.222 105.304 412.162 112.9 410.551Z" fill="#7DA032"/>
<path d="M105.253 419.638C105.253 419.638 102.823 414.823 107.094 410.738C107.094 410.738 103.967 415.008 106.047 419.146L105.253 419.638Z" fill="#698428"/>
<path d="M105.956 407.742C105.956 407.742 102.535 413.796 105.889 418.875L104.928 419.639C104.928 419.639 101.013 413.732 105.956 407.742Z" fill="#A6C642"/>
<path d="M105.171 421.485C107.693 421.485 109.737 420.695 109.737 419.72C109.737 418.745 107.693 417.955 105.171 417.955C102.65 417.955 100.605 418.745 100.605 419.72C100.605 420.695 102.65 421.485 105.171 421.485Z" fill="#775F5B"/>
<path d="M107.094 410.09C107.094 410.09 113.54 412.699 114.077 418.761H115.305C115.305 418.761 114.691 411.701 107.094 410.09Z" fill="#7DA032"/>
<path d="M116.151 418.761C116.151 418.761 115.684 413.388 109.902 412.162C109.902 412.162 114.808 414.148 115.216 418.761H116.151Z" fill="#698428"/>
<path d="M123.148 410.051C123.148 410.051 116.702 412.66 116.165 418.722H114.938C114.938 418.722 115.551 411.663 123.148 410.051Z" fill="#7DA032"/>
<path d="M115.501 419.138C115.501 419.138 113.071 414.323 117.342 410.238C117.342 410.238 114.215 414.508 116.295 418.646L115.501 419.138Z" fill="#698428"/>
<path d="M116.202 407.242C116.202 407.242 112.781 413.296 116.135 418.375L115.174 419.139C115.174 419.139 111.26 413.232 116.202 407.242Z" fill="#A6C642"/>
<path d="M115.42 420.985C117.941 420.985 119.986 420.195 119.986 419.22C119.986 418.245 117.941 417.455 115.42 417.455C112.898 417.455 110.854 418.245 110.854 419.22C110.854 420.195 112.898 420.985 115.42 420.985Z" fill="#775F5B"/>
<path d="M120.451 410.09C120.451 410.09 126.897 412.699 127.434 418.761H128.662C128.662 418.761 128.048 411.701 120.451 410.09Z" fill="#7DA032"/>
<path d="M129.509 418.761C129.509 418.761 129.042 413.388 123.26 412.162C123.26 412.162 128.166 414.148 128.574 418.761H129.509Z" fill="#698428"/>
<path d="M136.506 410.051C136.506 410.051 130.06 412.66 129.523 418.722H128.295C128.295 418.722 128.91 411.663 136.506 410.051Z" fill="#7DA032"/>
<path d="M128.858 419.138C128.858 419.138 126.428 414.323 130.699 410.238C130.699 410.238 127.572 414.508 129.652 418.646L128.858 419.138Z" fill="#698428"/>
<path d="M129.562 407.242C129.562 407.242 126.141 413.296 129.495 418.375L128.534 419.139C128.534 419.139 124.619 413.232 129.562 407.242Z" fill="#A6C642"/>
<path d="M128.777 420.985C131.299 420.985 133.343 420.195 133.343 419.22C133.343 418.245 131.299 417.455 128.777 417.455C126.255 417.455 124.211 418.245 124.211 419.22C124.211 420.195 126.255 420.985 128.777 420.985Z" fill="#775F5B"/>
<path d="M123.59 416.293C123.59 416.293 130.036 417.973 130.573 421.876H131.801C131.801 421.876 131.187 417.331 123.59 416.293Z" fill="#7DA032"/>
<path d="M132.647 421.878C132.647 421.878 132.18 418.418 126.398 417.629C126.398 417.629 131.304 418.908 131.712 421.878H132.647Z" fill="#698428"/>
<path d="M139.645 416.27C139.645 416.27 133.199 417.95 132.662 421.853H131.434C131.434 421.853 132.048 417.307 139.645 416.27Z" fill="#7DA032"/>
<path d="M131.997 422.122C131.997 422.122 129.567 419.022 133.838 416.391C133.838 416.391 130.711 419.141 132.791 421.805L131.997 422.122Z" fill="#698428"/>
<path d="M132.698 414.461C132.698 414.461 129.277 418.359 132.63 421.63L131.669 422.122C131.669 422.122 127.756 418.319 132.698 414.461Z" fill="#A6C642"/>
<path d="M131.916 423.311C134.437 423.311 136.482 422.802 136.482 422.174C136.482 421.546 134.437 421.037 131.916 421.037C129.394 421.037 127.35 421.546 127.35 422.174C127.35 422.802 129.394 423.311 131.916 423.311Z" fill="#775F5B"/>
<path d="M99.0664 412.141C99.0664 412.141 105.512 414.75 106.049 420.812H107.277C107.277 420.812 106.663 413.753 99.0664 412.141Z" fill="#7DA032"/>
<path d="M108.124 420.812C108.124 420.812 107.657 415.439 101.875 414.213C101.875 414.213 106.781 416.199 107.19 420.812H108.124Z" fill="#698428"/>
<path d="M115.123 412.104C115.123 412.104 108.677 414.713 108.14 420.775H106.912C106.912 420.775 107.526 413.715 115.123 412.104Z" fill="#7DA032"/>
<path d="M107.474 421.191C107.474 421.191 105.044 416.376 109.315 412.291C109.315 412.291 106.188 416.561 108.268 420.699L107.474 421.191Z" fill="#698428"/>
<path d="M108.177 409.295C108.177 409.295 104.756 415.349 108.11 420.428L107.149 421.192C107.149 421.192 103.234 415.285 108.177 409.295Z" fill="#A6C642"/>
<path d="M111.958 421.273C111.958 422.248 109.914 423.038 107.392 423.038C104.871 423.038 102.826 422.248 102.826 421.273C102.826 420.298 104.87 419.508 107.392 419.508C109.914 419.508 111.958 420.298 111.958 421.273Z" fill="#775F5B"/>
<path d="M109.43 412.316C109.43 412.316 115.876 414.925 116.413 420.987H117.641C117.641 420.987 117.027 413.927 109.43 412.316Z" fill="#7DA032"/>
<path d="M118.487 420.988C118.487 420.988 118.02 415.615 112.238 414.389C112.238 414.389 117.144 416.375 117.552 420.988H118.487Z" fill="#698428"/>
<path d="M125.484 412.277C125.484 412.277 119.038 414.886 118.501 420.948H117.273C117.273 420.948 117.887 413.889 125.484 412.277Z" fill="#7DA032"/>
<path d="M117.837 421.367C117.837 421.367 115.407 416.552 119.678 412.467C119.678 412.467 116.551 416.737 118.631 420.875L117.837 421.367Z" fill="#698428"/>
<path d="M118.538 409.469C118.538 409.469 115.117 415.523 118.471 420.602L117.51 421.366C117.51 421.366 113.596 415.459 118.538 409.469Z" fill="#A6C642"/>
<path d="M122.321 421.447C122.321 422.422 120.277 423.212 117.755 423.212C115.233 423.212 113.189 422.422 113.189 421.447C113.189 420.472 115.233 419.682 117.755 419.682C120.277 419.682 122.321 420.473 122.321 421.447Z" fill="#775F5B"/>
<path d="M122.785 412.316C122.785 412.316 129.231 414.925 129.768 420.987H130.996C130.996 420.987 130.382 413.927 122.785 412.316Z" fill="#7DA032"/>
<path d="M131.843 420.988C131.843 420.988 131.376 415.615 125.594 414.389C125.594 414.389 130.5 416.375 130.908 420.988H131.843Z" fill="#698428"/>
<path d="M138.84 412.277C138.84 412.277 132.394 414.886 131.857 420.948H130.629C130.629 420.948 131.243 413.889 138.84 412.277Z" fill="#7DA032"/>
<path d="M131.192 421.367C131.192 421.367 128.762 416.552 133.033 412.467C133.033 412.467 129.906 416.737 131.986 420.875L131.192 421.367Z" fill="#698428"/>
<path d="M131.893 409.469C131.893 409.469 128.472 415.523 131.826 420.602L130.865 421.366C130.865 421.366 126.951 415.459 131.893 409.469Z" fill="#A6C642"/>
<path d="M135.677 421.447C135.677 422.422 133.633 423.212 131.111 423.212C128.589 423.212 126.545 422.422 126.545 421.447C126.545 420.472 128.589 419.682 131.111 419.682C133.632 419.682 135.677 420.473 135.677 421.447Z" fill="#775F5B"/>
<path d="M134.736 415.193C134.736 415.193 141.182 417.114 141.719 421.576H142.947C142.947 421.576 142.333 416.379 134.736 415.193Z" fill="#7DA032"/>
<path d="M143.794 421.575C143.794 421.575 143.327 417.62 137.545 416.717C137.545 416.717 142.451 418.179 142.859 421.575H143.794Z" fill="#698428"/>
<path d="M150.791 415.164C150.791 415.164 144.345 417.084 143.808 421.547H142.58C142.58 421.547 143.194 416.351 150.791 415.164Z" fill="#7DA032"/>
<path d="M143.143 421.854C143.143 421.854 140.713 418.31 144.984 415.303C144.984 415.303 141.857 418.446 143.937 421.492L143.143 421.854Z" fill="#698428"/>
<path d="M143.844 413.098C143.844 413.098 140.423 417.554 143.777 421.293L142.816 421.856C142.816 421.856 138.902 417.507 143.844 413.098Z" fill="#A6C642"/>
<path d="M143.062 423.213C145.584 423.213 147.628 422.632 147.628 421.914C147.628 421.197 145.584 420.615 143.062 420.615C140.54 420.615 138.496 421.197 138.496 421.914C138.496 422.632 140.54 423.213 143.062 423.213Z" fill="#775F5B"/>
<path d="M134.736 415.193C134.736 415.193 141.182 417.114 141.719 421.576H142.947C142.947 421.576 142.333 416.379 134.736 415.193Z" fill="#7DA032"/>
<path d="M143.794 421.575C143.794 421.575 143.327 417.62 137.545 416.717C137.545 416.717 142.451 418.179 142.859 421.575H143.794Z" fill="#698428"/>
<path d="M150.791 415.164C150.791 415.164 144.345 417.084 143.808 421.547H142.58C142.58 421.547 143.194 416.351 150.791 415.164Z" fill="#7DA032"/>
<path d="M143.143 421.854C143.143 421.854 140.713 418.31 144.984 415.303C144.984 415.303 141.857 418.446 143.937 421.492L143.143 421.854Z" fill="#698428"/>
<path d="M143.844 413.098C143.844 413.098 140.423 417.554 143.777 421.293L142.816 421.856C142.816 421.856 138.902 417.507 143.844 413.098Z" fill="#A6C642"/>
<path d="M143.062 423.213C145.584 423.213 147.628 422.632 147.628 421.914C147.628 421.197 145.584 420.615 143.062 420.615C140.54 420.615 138.496 421.197 138.496 421.914C138.496 422.632 140.54 423.213 143.062 423.213Z" fill="#775F5B"/>
<path d="M137.527 411.936C137.527 411.936 143.973 414.545 144.51 420.607H145.738C145.738 420.607 145.124 413.547 137.527 411.936Z" fill="#7DA032"/>
<path d="M146.587 420.607C146.587 420.607 146.12 415.234 140.338 414.008C140.338 414.008 145.244 415.994 145.652 420.607H146.587Z" fill="#698428"/>
<path d="M153.584 411.896C153.584 411.896 147.138 414.505 146.601 420.567H145.373C145.373 420.567 145.987 413.508 153.584 411.896Z" fill="#7DA032"/>
<path d="M145.935 420.986C145.935 420.986 143.504 416.171 147.775 412.086C147.775 412.086 144.648 416.356 146.728 420.494L145.935 420.986Z" fill="#698428"/>
<path d="M146.638 409.088C146.638 409.088 143.217 415.142 146.57 420.221L145.609 420.985C145.609 420.985 141.695 415.078 146.638 409.088Z" fill="#A6C642"/>
<path d="M150.419 421.066C150.419 422.041 148.375 422.831 145.853 422.831C143.332 422.831 141.287 422.041 141.287 421.066C141.287 420.091 143.331 419.301 145.853 419.301C148.375 419.301 150.419 420.091 150.419 421.066Z" fill="#775F5B"/>
<path d="M125.008 412.365C125.008 412.365 131.454 414.974 131.991 421.036H133.219C133.219 421.036 132.605 413.977 125.008 412.365Z" fill="#7DA032"/>
<path d="M134.065 421.038C134.065 421.038 133.598 415.665 127.816 414.439C127.816 414.439 132.722 416.425 133.13 421.038H134.065Z" fill="#698428"/>
<path d="M141.063 412.328C141.063 412.328 134.617 414.937 134.08 420.999H132.852C132.852 420.999 133.467 413.939 141.063 412.328Z" fill="#7DA032"/>
<path d="M133.415 421.416C133.415 421.416 130.985 416.601 135.256 412.516C135.256 412.516 132.129 416.786 134.209 420.924L133.415 421.416Z" fill="#698428"/>
<path d="M134.119 409.52C134.119 409.52 130.698 415.574 134.052 420.653L133.091 421.417C133.091 421.417 129.176 415.51 134.119 409.52Z" fill="#A6C642"/>
<path d="M137.9 421.497C137.9 422.472 135.856 423.262 133.334 423.262C130.813 423.262 128.768 422.472 128.768 421.497C128.768 420.522 130.812 419.732 133.334 419.732C135.855 419.732 137.9 420.522 137.9 421.497Z" fill="#775F5B"/>
<path d="M158.935 412.62L149.593 423.31L149.479 421.192L158.935 411.021V412.62Z" fill="#B6712C"/>
<path d="M101 411.021L100.837 411.147L87.543 421.447V423.31L101.092 412.607L101 411.021Z" fill="#B6712C"/>
<path d="M94.3672 407.92C94.3672 407.92 100.813 410.529 101.35 416.591H102.578C102.578 416.591 101.964 409.531 94.3672 407.92Z" fill="#7DA032"/>
<path d="M103.425 416.591C103.425 416.591 102.958 411.218 97.1758 409.992C97.1758 409.992 102.082 411.978 102.49 416.591H103.425Z" fill="#698428"/>
<path d="M110.424 407.883C110.424 407.883 103.978 410.492 103.441 416.554H102.213C102.213 416.554 102.827 409.494 110.424 407.883Z" fill="#7DA032"/>
<path d="M102.774 416.97C102.774 416.97 100.344 412.155 104.615 408.07C104.615 408.07 101.488 412.34 103.568 416.478L102.774 416.97Z" fill="#698428"/>
<path d="M103.478 405.074C103.478 405.074 100.057 411.128 103.41 416.207L102.449 416.971C102.449 416.971 98.535 411.064 103.478 405.074Z" fill="#A6C642"/>
<path d="M107.259 417.052C107.259 418.027 105.215 418.817 102.693 418.817C100.172 418.817 98.127 418.027 98.127 417.052C98.127 416.077 100.171 415.287 102.693 415.287C105.215 415.287 107.259 416.077 107.259 417.052Z" fill="#775F5B"/>
<path d="M90.1016 411.387C90.1016 411.387 96.5476 413.996 97.0846 420.058H98.3126C98.3126 420.058 97.6976 412.999 90.1016 411.387Z" fill="#7DA032"/>
<path d="M99.1591 420.058C99.1591 420.058 98.6922 414.685 92.9102 413.459C92.9102 413.459 97.8162 415.445 98.2242 420.058H99.1591Z" fill="#698428"/>
<path d="M106.156 411.35C106.156 411.35 99.7103 413.959 99.1733 420.021H97.9453C97.9453 420.021 98.5593 412.961 106.156 411.35Z" fill="#7DA032"/>
<path d="M98.5087 420.437C98.5087 420.437 96.0787 415.622 100.35 411.537C100.35 411.537 97.2227 415.807 99.3027 419.945L98.5087 420.437Z" fill="#698428"/>
<path d="M99.2097 408.541C99.2097 408.541 95.7887 414.595 99.1427 419.674L98.1817 420.438C98.1817 420.438 94.2677 414.531 99.2097 408.541Z" fill="#A6C642"/>
<path d="M102.993 420.519C102.993 421.494 100.949 422.284 98.4273 422.284C95.9063 422.284 93.8613 421.494 93.8613 420.519C93.8613 419.544 95.9053 418.754 98.4273 418.754C100.949 418.754 102.993 419.544 102.993 420.519Z" fill="#775F5B"/>
<path d="M87.543 421.446L149.478 421.191L149.592 423.309H87.543V421.446Z" fill="#B6712C"/>
<path d="M415.684 413.885V412.387H473.667V413.985L415.684 413.885Z" fill="#A86529"/>
<path d="M415.325 413.986L402.275 424.676H464.324L473.666 413.986H415.325Z" fill="#775F5B"/>
<path d="M418.799 408.859C418.799 408.859 425.245 411.468 425.782 417.53H427.01C427.01 417.53 426.395 410.471 418.799 408.859Z" fill="#7DA032"/>
<path d="M427.856 417.531C427.856 417.531 427.389 412.158 421.607 410.932C421.607 410.932 426.513 412.918 426.921 417.531H427.856Z" fill="#698428"/>
<path d="M434.854 408.822C434.854 408.822 428.408 411.431 427.871 417.493H426.643C426.643 417.493 427.257 410.433 434.854 408.822Z" fill="#7DA032"/>
<path d="M427.206 417.91C427.206 417.91 424.776 413.095 429.047 409.01C429.047 409.01 425.92 413.28 428 417.418L427.206 417.91Z" fill="#698428"/>
<path d="M427.907 406.014C427.907 406.014 424.486 412.068 427.839 417.147L426.878 417.911C426.878 417.911 422.965 412.004 427.907 406.014Z" fill="#A6C642"/>
<path d="M431.691 417.992C431.691 418.967 429.647 419.757 427.125 419.757C424.603 419.757 422.559 418.967 422.559 417.992C422.559 417.017 424.603 416.227 427.125 416.227C429.647 416.227 431.691 417.017 431.691 417.992Z" fill="#775F5B"/>
<path d="M429.047 408.363C429.047 408.363 435.493 410.972 436.03 417.034H437.258C437.258 417.034 436.644 409.974 429.047 408.363Z" fill="#7DA032"/>
<path d="M438.106 417.035C438.106 417.035 437.639 411.662 431.857 410.436C431.857 410.436 436.763 412.422 437.171 417.035H438.106Z" fill="#698428"/>
<path d="M445.104 408.324C445.104 408.324 438.658 410.933 438.121 416.995H436.893C436.893 416.995 437.507 409.936 445.104 408.324Z" fill="#7DA032"/>
<path d="M437.454 417.414C437.454 417.414 435.024 412.599 439.295 408.514C439.295 408.514 436.168 412.784 438.248 416.922L437.454 417.414Z" fill="#698428"/>
<path d="M438.157 405.516C438.157 405.516 434.736 411.57 438.089 416.649L437.128 417.413C437.128 417.413 433.214 411.506 438.157 405.516Z" fill="#A6C642"/>
<path d="M441.939 417.494C441.939 418.469 439.895 419.259 437.373 419.259C434.851 419.259 432.807 418.469 432.807 417.494C432.807 416.519 434.851 415.729 437.373 415.729C439.895 415.729 441.939 416.519 441.939 417.494Z" fill="#775F5B"/>
<path d="M442.406 408.363C442.406 408.363 448.852 410.972 449.389 417.034H450.617C450.617 417.034 450.002 409.974 442.406 408.363Z" fill="#7DA032"/>
<path d="M451.464 417.035C451.464 417.035 450.997 411.662 445.215 410.436C445.215 410.436 450.121 412.422 450.529 417.035H451.464Z" fill="#698428"/>
<path d="M458.461 408.324C458.461 408.324 452.015 410.933 451.478 416.995H450.25C450.25 416.995 450.864 409.936 458.461 408.324Z" fill="#7DA032"/>
<path d="M450.813 417.414C450.813 417.414 448.383 412.599 452.654 408.514C452.654 408.514 449.527 412.784 451.607 416.922L450.813 417.414Z" fill="#698428"/>
<path d="M451.514 405.516C451.514 405.516 448.093 411.57 451.447 416.649L450.486 417.413C450.486 417.413 446.572 411.506 451.514 405.516Z" fill="#A6C642"/>
<path d="M455.298 417.494C455.298 418.469 453.254 419.259 450.732 419.259C448.21 419.259 446.166 418.469 446.166 417.494C446.166 416.519 448.21 415.729 450.732 415.729C453.254 415.729 455.298 416.519 455.298 417.494Z" fill="#775F5B"/>
<path d="M454.354 408.363C454.354 408.363 460.8 410.972 461.337 417.034H462.565C462.565 417.034 461.951 409.974 454.354 408.363Z" fill="#7DA032"/>
<path d="M463.413 417.035C463.413 417.035 462.946 411.662 457.164 410.436C457.164 410.436 462.07 412.422 462.479 417.035H463.413Z" fill="#698428"/>
<path d="M470.41 408.324C470.41 408.324 463.964 410.933 463.427 416.995H462.199C462.199 416.995 462.813 409.936 470.41 408.324Z" fill="#7DA032"/>
<path d="M462.761 417.414C462.761 417.414 460.331 412.599 464.602 408.514C464.602 408.514 461.475 412.784 463.555 416.922L462.761 417.414Z" fill="#698428"/>
<path d="M463.464 405.516C463.464 405.516 460.043 411.57 463.397 416.649L462.436 417.413C462.436 417.413 458.521 411.506 463.464 405.516Z" fill="#A6C642"/>
<path d="M467.245 417.494C467.245 418.469 465.201 419.259 462.679 419.259C460.157 419.259 458.113 418.469 458.113 417.494C458.113 416.519 460.157 415.729 462.679 415.729C465.201 415.729 467.245 416.519 467.245 417.494Z" fill="#775F5B"/>
<path d="M411.578 411.955C411.578 411.955 418.024 414.564 418.561 420.626H419.789C419.789 420.626 419.175 413.566 411.578 411.955Z" fill="#7DA032"/>
<path d="M420.638 420.626C420.638 420.626 420.171 415.253 414.389 414.027C414.389 414.027 419.295 416.013 419.703 420.626H420.638Z" fill="#698428"/>
<path d="M427.635 411.916C427.635 411.916 421.189 414.525 420.652 420.587H419.424C419.424 420.587 420.038 413.528 427.635 411.916Z" fill="#7DA032"/>
<path d="M419.985 421.005C419.985 421.005 417.555 416.19 421.826 412.105C421.826 412.105 418.699 416.375 420.779 420.513L419.985 421.005Z" fill="#698428"/>
<path d="M420.689 409.107C420.689 409.107 417.268 415.161 420.621 420.24L419.66 421.004C419.66 421.004 415.746 415.097 420.689 409.107Z" fill="#A6C642"/>
<path d="M424.47 421.085C424.47 422.06 422.426 422.85 419.904 422.85C417.382 422.85 415.338 422.06 415.338 421.085C415.338 420.11 417.382 419.32 419.904 419.32C422.426 419.32 424.47 420.11 424.47 421.085Z" fill="#775F5B"/>
<path d="M421.826 411.455C421.826 411.455 428.272 414.064 428.809 420.126H430.037C430.037 420.126 429.423 413.066 421.826 411.455Z" fill="#7DA032"/>
<path d="M430.884 420.126C430.884 420.126 430.417 414.753 424.635 413.527C424.635 413.527 429.541 415.513 429.949 420.126H430.884Z" fill="#698428"/>
<path d="M437.883 411.416C437.883 411.416 431.437 414.025 430.9 420.087H429.672C429.672 420.087 430.286 413.028 437.883 411.416Z" fill="#7DA032"/>
<path d="M430.233 420.505C430.233 420.505 427.803 415.69 432.074 411.605C432.074 411.605 428.947 415.875 431.027 420.013L430.233 420.505Z" fill="#698428"/>
<path d="M430.937 408.607C430.937 408.607 427.516 414.661 430.869 419.74L429.908 420.504C429.908 420.504 425.994 414.598 430.937 408.607Z" fill="#A6C642"/>
<path d="M434.718 420.585C434.718 421.56 432.674 422.35 430.152 422.35C427.63 422.35 425.586 421.56 425.586 420.585C425.586 419.61 427.63 418.82 430.152 418.82C432.674 418.82 434.718 419.611 434.718 420.585Z" fill="#775F5B"/>
<path d="M435.184 411.455C435.184 411.455 441.63 414.064 442.167 420.126H443.395C443.395 420.126 442.781 413.066 435.184 411.455Z" fill="#7DA032"/>
<path d="M444.241 420.126C444.241 420.126 443.774 414.753 437.992 413.527C437.992 413.527 442.898 415.513 443.307 420.126H444.241Z" fill="#698428"/>
<path d="M451.238 411.416C451.238 411.416 444.792 414.025 444.255 420.087H443.027C443.027 420.087 443.642 413.028 451.238 411.416Z" fill="#7DA032"/>
<path d="M443.591 420.505C443.591 420.505 441.161 415.69 445.432 411.605C445.432 411.605 442.305 415.875 444.385 420.013L443.591 420.505Z" fill="#698428"/>
<path d="M444.294 408.607C444.294 408.607 440.873 414.661 444.227 419.74L443.266 420.504C443.266 420.504 439.351 414.598 444.294 408.607Z" fill="#A6C642"/>
<path d="M448.075 420.585C448.075 421.56 446.031 422.35 443.509 422.35C440.987 422.35 438.943 421.56 438.943 420.585C438.943 419.61 440.987 418.82 443.509 418.82C446.031 418.82 448.075 419.611 448.075 420.585Z" fill="#775F5B"/>
<path d="M438.322 417.66C438.322 417.66 444.768 419.34 445.305 423.243H446.533C446.533 423.243 445.919 418.697 438.322 417.66Z" fill="#7DA032"/>
<path d="M447.38 423.243C447.38 423.243 446.913 419.783 441.131 418.994C441.131 418.994 446.037 420.273 446.446 423.243H447.38Z" fill="#698428"/>
<path d="M454.377 417.635C454.377 417.635 447.931 419.315 447.394 423.219H446.166C446.166 423.219 446.781 418.673 454.377 417.635Z" fill="#7DA032"/>
<path d="M446.729 423.487C446.729 423.487 444.299 420.387 448.57 417.756C448.57 417.756 445.443 420.505 447.523 423.17L446.729 423.487Z" fill="#698428"/>
<path d="M447.433 415.826C447.433 415.826 444.012 419.724 447.365 422.995L446.404 423.487C446.404 423.487 442.49 419.683 447.433 415.826Z" fill="#A6C642"/>
<path d="M451.214 423.538C451.214 424.166 449.17 424.674 446.648 424.674C444.127 424.674 442.082 424.165 442.082 423.538C442.082 422.91 444.126 422.402 446.648 422.402C449.169 422.401 451.214 422.91 451.214 423.538Z" fill="#775F5B"/>
<path d="M413.799 413.506C413.799 413.506 420.245 416.115 420.782 422.177H422.01C422.01 422.177 421.396 415.118 413.799 413.506Z" fill="#7DA032"/>
<path d="M422.858 422.177C422.858 422.177 422.391 416.804 416.609 415.578C416.609 415.578 421.515 417.564 421.924 422.177H422.858Z" fill="#698428"/>
<path d="M429.856 413.469C429.856 413.469 423.41 416.078 422.873 422.14H421.645C421.645 422.14 422.259 415.08 429.856 413.469Z" fill="#7DA032"/>
<path d="M422.206 422.556C422.206 422.556 419.776 417.741 424.047 413.656C424.047 413.656 420.92 417.926 423 422.064L422.206 422.556Z" fill="#698428"/>
<path d="M422.909 410.66C422.909 410.66 419.488 416.714 422.842 421.793L421.881 422.557C421.881 422.557 417.967 416.65 422.909 410.66Z" fill="#A6C642"/>
<path d="M426.691 422.638C426.691 423.613 424.647 424.403 422.125 424.403C419.603 424.403 417.559 423.613 417.559 422.638C417.559 421.663 419.603 420.873 422.125 420.873C424.647 420.873 426.691 421.663 426.691 422.638Z" fill="#775F5B"/>
<path d="M424.162 413.682C424.162 413.682 430.608 416.291 431.145 422.353H432.373C432.373 422.353 431.759 415.294 424.162 413.682Z" fill="#7DA032"/>
<path d="M433.22 422.353C433.22 422.353 432.753 416.98 426.971 415.754C426.971 415.754 431.877 417.74 432.285 422.353H433.22Z" fill="#698428"/>
<path d="M440.217 413.645C440.217 413.645 433.771 416.254 433.234 422.316H432.006C432.006 422.316 432.62 415.256 440.217 413.645Z" fill="#7DA032"/>
<path d="M432.569 422.732C432.569 422.732 430.139 417.917 434.41 413.832C434.41 413.832 431.283 418.102 433.363 422.24L432.569 422.732Z" fill="#698428"/>
<path d="M433.273 410.836C433.273 410.836 429.852 416.89 433.205 421.969L432.244 422.733C432.244 422.733 428.33 416.826 433.273 410.836Z" fill="#A6C642"/>
<path d="M432.488 424.579C435.01 424.579 437.054 423.789 437.054 422.814C437.054 421.839 435.01 421.049 432.488 421.049C429.966 421.049 427.922 421.839 427.922 422.814C427.922 423.789 429.966 424.579 432.488 424.579Z" fill="#775F5B"/>
<path d="M437.518 413.682C437.518 413.682 443.964 416.291 444.501 422.353H445.729C445.729 422.353 445.115 415.294 437.518 413.682Z" fill="#7DA032"/>
<path d="M446.575 422.353C446.575 422.353 446.108 416.98 440.326 415.754C440.326 415.754 445.232 417.74 445.641 422.353H446.575Z" fill="#698428"/>
<path d="M453.572 413.645C453.572 413.645 447.126 416.254 446.589 422.316H445.361C445.361 422.316 445.976 415.256 453.572 413.645Z" fill="#7DA032"/>
<path d="M445.925 422.732C445.925 422.732 443.495 417.917 447.766 413.832C447.766 413.832 444.639 418.102 446.719 422.24L445.925 422.732Z" fill="#698428"/>
<path d="M446.628 410.836C446.628 410.836 443.207 416.89 446.561 421.969L445.6 422.733C445.6 422.733 441.685 416.826 446.628 410.836Z" fill="#A6C642"/>
<path d="M445.843 424.579C448.365 424.579 450.409 423.789 450.409 422.814C450.409 421.839 448.365 421.049 445.843 421.049C443.322 421.049 441.277 421.839 441.277 422.814C441.277 423.789 443.322 424.579 445.843 424.579Z" fill="#775F5B"/>
<path d="M449.469 416.559C449.469 416.559 455.915 418.479 456.452 422.942H457.68C457.68 422.942 457.066 417.745 449.469 416.559Z" fill="#7DA032"/>
<path d="M458.526 422.94C458.526 422.94 458.059 418.985 452.277 418.082C452.277 418.082 457.183 419.544 457.592 422.94H458.526Z" fill="#698428"/>
<path d="M465.523 416.529C465.523 416.529 459.077 418.45 458.54 422.912H457.312C457.312 422.912 457.926 417.715 465.523 416.529Z" fill="#7DA032"/>
<path d="M457.876 423.219C457.876 423.219 455.446 419.675 459.717 416.668C459.717 416.668 456.59 419.811 458.67 422.857L457.876 423.219Z" fill="#698428"/>
<path d="M458.577 414.463C458.577 414.463 455.156 418.919 458.51 422.658L457.549 423.221C457.549 423.221 453.635 418.872 458.577 414.463Z" fill="#A6C642"/>
<path d="M457.795 424.578C460.316 424.578 462.361 423.997 462.361 423.279C462.361 422.562 460.316 421.98 457.795 421.98C455.273 421.98 453.229 422.562 453.229 423.279C453.229 423.997 455.273 424.578 457.795 424.578Z" fill="#775F5B"/>
<path d="M449.469 416.559C449.469 416.559 455.915 418.479 456.452 422.942H457.68C457.68 422.942 457.066 417.745 449.469 416.559Z" fill="#7DA032"/>
<path d="M458.526 422.94C458.526 422.94 458.059 418.985 452.277 418.082C452.277 418.082 457.183 419.544 457.592 422.94H458.526Z" fill="#698428"/>
<path d="M465.523 416.529C465.523 416.529 459.077 418.45 458.54 422.912H457.312C457.312 422.912 457.926 417.715 465.523 416.529Z" fill="#7DA032"/>
<path d="M457.876 423.219C457.876 423.219 455.446 419.675 459.717 416.668C459.717 416.668 456.59 419.811 458.67 422.857L457.876 423.219Z" fill="#698428"/>
<path d="M458.577 414.463C458.577 414.463 455.156 418.919 458.51 422.658L457.549 423.221C457.549 423.221 453.635 418.872 458.577 414.463Z" fill="#A6C642"/>
<path d="M457.795 424.578C460.316 424.578 462.361 423.997 462.361 423.279C462.361 422.562 460.316 421.98 457.795 421.98C455.273 421.98 453.229 422.562 453.229 423.279C453.229 423.997 455.273 424.578 457.795 424.578Z" fill="#775F5B"/>
<path d="M452.262 413.299C452.262 413.299 458.708 415.908 459.245 421.97H460.473C460.473 421.97 459.858 414.91 452.262 413.299Z" fill="#7DA032"/>
<path d="M461.319 421.97C461.319 421.97 460.852 416.597 455.07 415.371C455.07 415.371 459.976 417.357 460.384 421.97H461.319Z" fill="#698428"/>
<path d="M468.316 413.262C468.316 413.262 461.87 415.871 461.333 421.933H460.105C460.105 421.933 460.719 414.873 468.316 413.262Z" fill="#7DA032"/>
<path d="M460.669 422.349C460.669 422.349 458.239 417.534 462.51 413.449C462.51 413.449 459.383 417.719 461.463 421.857L460.669 422.349Z" fill="#698428"/>
<path d="M461.37 410.453C461.37 410.453 457.949 416.507 461.303 421.586L460.342 422.35C460.342 422.35 456.428 416.443 461.37 410.453Z" fill="#A6C642"/>
<path d="M465.154 422.431C465.154 423.406 463.109 424.196 460.587 424.196C458.065 424.196 456.021 423.406 456.021 422.431C456.021 421.456 458.065 420.666 460.587 420.666C463.109 420.666 465.154 421.456 465.154 422.431Z" fill="#775F5B"/>
<path d="M439.74 413.732C439.74 413.732 446.186 416.341 446.723 422.403H447.951C447.951 422.403 447.337 415.343 439.74 413.732Z" fill="#7DA032"/>
<path d="M448.798 422.404C448.798 422.404 448.331 417.031 442.549 415.805C442.549 415.805 447.455 417.791 447.864 422.404H448.798Z" fill="#698428"/>
<path d="M455.797 413.693C455.797 413.693 449.351 416.302 448.814 422.364H447.586C447.586 422.364 448.2 415.305 455.797 413.693Z" fill="#7DA032"/>
<path d="M448.147 422.783C448.147 422.783 445.717 417.968 449.988 413.883C449.988 413.883 446.861 418.153 448.941 422.291L448.147 422.783Z" fill="#698428"/>
<path d="M448.851 410.885C448.851 410.885 445.43 416.939 448.783 422.018L447.822 422.782C447.822 422.782 443.908 416.875 448.851 410.885Z" fill="#A6C642"/>
<path d="M452.632 422.863C452.632 423.838 450.588 424.628 448.066 424.628C445.544 424.628 443.5 423.838 443.5 422.863C443.5 421.888 445.544 421.098 448.066 421.098C450.588 421.098 452.632 421.889 452.632 422.863Z" fill="#775F5B"/>
<path d="M473.667 413.985L464.325 424.675L464.211 422.557L473.667 412.387V413.985Z" fill="#B6712C"/>
<path d="M415.732 412.387L415.57 412.512L402.275 422.813V424.675L415.824 413.973L415.732 412.387Z" fill="#B6712C"/>
<path d="M409.1 409.285C409.1 409.285 415.546 411.894 416.083 417.956H417.311C417.311 417.956 416.697 410.897 409.1 409.285Z" fill="#7DA032"/>
<path d="M418.159 417.958C418.159 417.958 417.692 412.585 411.91 411.359C411.91 411.359 416.816 413.345 417.225 417.958H418.159Z" fill="#698428"/>
<path d="M425.156 409.248C425.156 409.248 418.71 411.857 418.173 417.919H416.945C416.945 417.919 417.559 410.859 425.156 409.248Z" fill="#7DA032"/>
<path d="M417.507 418.336C417.507 418.336 415.077 413.521 419.348 409.436C419.348 409.436 416.221 413.706 418.301 417.844L417.507 418.336Z" fill="#698428"/>
<path d="M418.21 406.439C418.21 406.439 414.789 412.493 418.143 417.572L417.182 418.336C417.182 418.336 413.267 412.429 418.21 406.439Z" fill="#A6C642"/>
<path d="M421.991 418.417C421.991 419.392 419.947 420.182 417.425 420.182C414.904 420.182 412.859 419.392 412.859 418.417C412.859 417.442 414.903 416.652 417.425 416.652C419.947 416.652 421.991 417.442 421.991 418.417Z" fill="#775F5B"/>
<path d="M404.834 412.754C404.834 412.754 411.28 415.363 411.817 421.425H413.045C413.045 421.425 412.431 414.365 404.834 412.754Z" fill="#7DA032"/>
<path d="M413.892 421.425C413.892 421.425 413.425 416.052 407.643 414.826C407.643 414.826 412.549 416.812 412.958 421.425H413.892Z" fill="#698428"/>
<path d="M420.889 412.715C420.889 412.715 414.443 415.324 413.906 421.386H412.678C412.678 421.386 413.292 414.327 420.889 412.715Z" fill="#7DA032"/>
<path d="M413.241 421.802C413.241 421.802 410.811 416.987 415.082 412.902C415.082 412.902 411.955 417.172 414.035 421.31L413.241 421.802Z" fill="#698428"/>
<path d="M413.942 409.906C413.942 409.906 410.521 415.96 413.875 421.039L412.914 421.803C412.914 421.803 409 415.896 413.942 409.906Z" fill="#A6C642"/>
<path d="M417.726 421.884C417.726 422.859 415.682 423.649 413.16 423.649C410.638 423.649 408.594 422.859 408.594 421.884C408.594 420.909 410.638 420.119 413.16 420.119C415.682 420.119 417.726 420.909 417.726 421.884Z" fill="#775F5B"/>
<path d="M402.275 422.815L464.21 422.559L464.324 424.677H402.275V422.815Z" fill="#B6712C"/>
</g>
</g>
<defs>
<clipPath id="clip0_66_2">
<rect width="580" height="500" fill="white"/>
</clipPath>
<clipPath id="clip1_66_2">
<rect width="580" height="500" fill="white"/>
</clipPath>
</defs>
</svg>
